<svg xmlns="http://www.w3.org/2000/svg" width="156" height="35.588" viewBox="0 0 156 35.588">
  <g id="Layer_2" data-name="Layer 2" transform="translate(103.006 -144.998)">
    <g id="Layer_1-2" data-name="Layer 1-2" transform="translate(-103.006 144.998)">
      <path id="Path_29614" data-name="Path 29614" d="M-85.385,148.972a14.905,14.905,0,0,0-4.883-1.132,15.659,15.659,0,0,0-4.961.579,14.77,14.77,0,0,0-4.519,2.025,6.85,6.85,0,0,0-1.721,1.649,2.875,2.875,0,0,0-.553,2.069A4,4,0,0,0-101,156.129c.133.147.269.294.414.434l.217.211.217.191.223.177.235.159c.153.115.332.2.5.3a12.06,12.06,0,0,0,4.648,1.12,29.844,29.844,0,0,0,4.953-.1q1.244-.113,2.478-.306c.408-.064.822-.127,1.227-.2l.639-.115.3-.056.153-.032h.127a102.581,102.581,0,0,0,30.059-12.672,1.567,1.567,0,0,1,2.158.5,1.566,1.566,0,0,1-.5,2.158H-53a105.217,105.217,0,0,1-31.308,11.747h-.344l-.318.052-.636.1c-.426.064-.853.115-1.273.159-.853.1-1.713.165-2.578.217a32.135,32.135,0,0,1-5.2-.109,17.114,17.114,0,0,1-2.618-.414,10.138,10.138,0,0,1-2.5-1,5.543,5.543,0,0,1-.579-.376l-.28-.211c-.09-.07-.173-.153-.263-.229l-.255-.237-.229-.241c-.153-.159-.3-.332-.446-.509a5,5,0,0,1-1.166-2.548,3.66,3.66,0,0,1,.159-1.458,4.493,4.493,0,0,1,.637-1.273,7.738,7.738,0,0,1,2.019-1.744,15.171,15.171,0,0,1,4.8-1.91,16.03,16.03,0,0,1,5.106-.358,14.62,14.62,0,0,1,2.548.485A15.486,15.486,0,0,1-85.385,148.972Z" transform="translate(103.006 -144.998)" fill="#03f87e"/>
      <path id="Path_29615" data-name="Path 29615" d="M-92.905,166.094a24.886,24.886,0,0,1-6.176-3.051c-.74-2.653-1.816-6.52-2.739-9.862,2.108,1.47,5.152,2.12,8.278,2.323a.371.371,0,0,1,.35.344l.776,9.856a.38.38,0,0,1-.358.4A.364.364,0,0,1-92.905,166.094Z" transform="translate(104.179 -136.905)" fill="#6804bf"/>
      <path id="Path_29616" data-name="Path 29616" d="M-82.555,153.929-84.8,167.25a.382.382,0,0,1-.376.318,55.638,55.638,0,0,1-10.148-.891.371.371,0,0,1-.3-.356l-.229-10.679a.384.384,0,0,1,.37-.382,60.058,60.058,0,0,0,9.219-1.036c1.018-.211,2.1-.448,3.254-.72a.373.373,0,0,1,.452.276A.377.377,0,0,1-82.555,153.929Z" transform="translate(110.078 -136.597)" fill="#03f87e"/>
      <path id="Path_29617" data-name="Path 29617" d="M-82.606,170.951c-2.12.141-4.07.231-5.872.274a.382.382,0,0,1-.386-.378.377.377,0,0,1,.012-.094l3.61-14.548a.349.349,0,0,1,.261-.269,137.948,137.948,0,0,0,17.191-6.176" transform="translate(116.993 -140.286)" fill="#6804bf"/>
      <path id="Path_29618" data-name="Path 29618" d="M-73.192,176.1c-.859,0-1.724,0-2.584-.052-1.044-.032-3.127-.133-5.361-.394-10.769-1.229-16.078-5.018-16.479-6.367-.165-.567-.414-1.44-.712-2.5l-2.751-9.882c-1.038-3.739-1.88-6.838-1.88-6.838a.421.421,0,0,1,.294-.517.427.427,0,0,1,.515.292s.839,3.077,1.91,6.815l2.719,9.882c.3,1.062.547,1.91.714,2.5.286.993,5.583,4.623,15.765,5.794,2.285.261,4.455.356,5.3.388,1.273.044,2.546.058,3.819,0a.421.421,0,0,1,.422.42.42.42,0,0,1-.422.42Z" transform="translate(103.038 -140.512)" fill="#03f87e"/>
      <path id="Path_29619" data-name="Path 29619" d="M-92.249,156.278c-5.635,0-10.041-2.2-10.041-5.016s4.394-5.01,10.041-5.01,10.041,2.2,10.041,5.01S-86.634,156.278-92.249,156.278Zm0-9.187c-4.993,0-9.207,1.91-9.207,4.171s4.2,4.177,9.207,4.177,9.2-1.911,9.2-4.177S-87.277,147.09-92.249,147.09Z" transform="translate(103.714 -143.759)" fill="#03f87e"/>
      <ellipse id="Ellipse_1707" data-name="Ellipse 1707" cx="7.341" cy="3.343" rx="7.341" ry="3.343" transform="translate(4.206 3.141)" fill="#ff5082"/>
      <path id="Path_29620" data-name="Path 29620" d="M-73.794,169.307a7.678,7.678,0,0,1-3.248-2.928,8.066,8.066,0,0,1-1.146-4.292,11.352,11.352,0,0,1,1.49-5.8,10.467,10.467,0,0,1,4.163-4.024,12.511,12.511,0,0,1,6.112-1.452,10.936,10.936,0,0,1,4.949,1.05,7.7,7.7,0,0,1,3.254,2.922,8.186,8.186,0,0,1,1.14,4.3,11.372,11.372,0,0,1-1.492,5.794,10.469,10.469,0,0,1-4.163,4.03,12.567,12.567,0,0,1-6.081,1.446A11.031,11.031,0,0,1-73.794,169.307Zm8.519-4.241a5.843,5.843,0,0,0,2.069-2.375,7.413,7.413,0,0,0,.726-3.292,4.067,4.067,0,0,0-1.172-3.043,4.461,4.461,0,0,0-3.26-1.14,5.5,5.5,0,0,0-3.113.885,5.834,5.834,0,0,0-2.071,2.375,7.436,7.436,0,0,0-.694,3.286,4.085,4.085,0,0,0,1.166,3.049,4.453,4.453,0,0,0,3.26,1.14A5.558,5.558,0,0,0-65.275,165.066Z" transform="translate(127.551 -139.252)" fill="#fff"/>
      <path id="Path_29621" data-name="Path 29621" d="M-62.03,155.213h-5.794l.859-4.215h16.829l-.859,4.215h-5.73l-2.924,14.574h-5.317Z" transform="translate(137.803 -139.064)" fill="#fff"/>
      <path id="Path_29622" data-name="Path 29622" d="M-53.352,155.213H-59.12l.859-4.215h16.827l-.859,4.215h-5.73l-2.922,14.574h-5.317Z" transform="translate(146.412 -139.064)" fill="#fff"/>
      <path id="Path_29623" data-name="Path 29623" d="M-39,154.695a5.131,5.131,0,0,1,1.961,1.987,6.058,6.058,0,0,1,.74,3.037,7.572,7.572,0,0,1-.917,3.737,6.852,6.852,0,0,1-2.484,2.61,6.439,6.439,0,0,1-3.425.955,4.249,4.249,0,0,1-3.853-1.719l-1.2,6.011H-52.59l3.413-17.084H-45l-.255,1.185a5.167,5.167,0,0,1,3.642-1.394A5.238,5.238,0,0,1-39,154.695Zm-2.59,7.787a3.778,3.778,0,0,0,.833-2.548,2.433,2.433,0,0,0-.636-1.77,2.355,2.355,0,0,0-1.752-.636,2.7,2.7,0,0,0-2.158.981,3.773,3.773,0,0,0-.839,2.548,2.207,2.207,0,0,0,2,2.4,2.35,2.35,0,0,0,.392,0,2.726,2.726,0,0,0,2.16-.975Z" transform="translate(152.87 -136.075)" fill="#fff"/>
      <path id="Path_29624" data-name="Path 29624" d="M-40.82,151.785h4.406l-3.431,17.223h-4.412Z" transform="translate(161.112 -138.285)" fill="#fff"/>
      <path id="Path_29625" data-name="Path 29625" d="M-25,154.224-27.512,166.8h-4.177l.255-1.184a5.389,5.389,0,0,1-6.252.706,5.085,5.085,0,0,1-1.967-1.979,6.123,6.123,0,0,1-.74-3.069,7.52,7.52,0,0,1,.9-3.7,6.851,6.851,0,0,1,2.482-2.612,6.467,6.467,0,0,1,3.425-.955,4.247,4.247,0,0,1,3.853,1.719l.3-1.508Zm-6.367,8.276a3.736,3.736,0,0,0,.841-2.546,2.427,2.427,0,0,0-.637-1.77,2.324,2.324,0,0,0-1.752-.637,2.7,2.7,0,0,0-2.158.981,3.81,3.81,0,0,0-.833,2.546,2.2,2.2,0,0,0,2,2.387,2.389,2.389,0,0,0,.358,0,2.713,2.713,0,0,0,2.16-.975Z" transform="translate(164.932 -136.082)" fill="#fff"/>
      <path id="Path_29626" data-name="Path 29626" d="M-15.712,154.119l-8.036,13.142a13.84,13.84,0,0,1-1.909,2.5A5.683,5.683,0,0,1-27.6,171.03a7.217,7.217,0,0,1-4.374.084,4.543,4.543,0,0,1-1.565-.79l1.973-3.115a2.866,2.866,0,0,0,1.949.72,1.911,1.911,0,0,0,1.024-.267,3.173,3.173,0,0,0,.833-.867l-2.858-12.676h4.388l1.6,7.73,4.648-7.73Z" transform="translate(171.712 -135.977)" fill="#fff"/>
    </g>
  </g>
</svg>
