<svg xmlns="http://www.w3.org/2000/svg" xmlns:xlink="http://www.w3.org/1999/xlink" width="174.122" height="142.815" viewBox="0 0 174.122 142.815">
  <defs>
    <filter id="Union_1" x="87.09" y="32.819" width="72.064" height="59.354" filterUnits="userSpaceOnUse">
      <feOffset dx="1" dy="3" input="SourceAlpha"/>
      <feGaussianBlur result="blur"/>
      <feFlood flood-opacity="0.306"/>
      <feComposite operator="in" in2="blur"/>
      <feComposite in="SourceGraphic"/>
    </filter>
    <filter id="Ellipse_2478" x="0" y="30.819" width="101.761" height="101.761" filterUnits="userSpaceOnUse">
      <feOffset dy="3" input="SourceAlpha"/>
      <feGaussianBlur stdDeviation="3" result="blur-2"/>
      <feFlood flood-opacity="0.325"/>
      <feComposite operator="in" in2="blur-2"/>
      <feComposite in="SourceGraphic"/>
    </filter>
  </defs>
  <g id="Group_21008" data-name="Group 21008" transform="translate(-349.781 -393.638)">
    <g id="Group_20997" data-name="Group 20997" transform="translate(446.355 477.285)" opacity="0.282">
      <path id="Path_39417" data-name="Path 39417" d="M1346.226,1502.6l.16.346c1.689-.617,2.2,1.729.7,2.423a1.471,1.471,0,0,1-1.527-.561c-.447-.969.152-1.3.312-2.015l.356-.193Zm-2.386,1.238-.692.332.1.226c-.964.8-.1,2.791,1.22,2.181,1.561-.722,1.132-2.791-.524-2.5l-.109-.235Zm-2.614,1.2.113.242c1.3-.225,2.63,1.53.175,2.665-2.256-1.375-1.276-.953-.885-2.656l.6-.251Zm-2.575,1.036q-.62.232-1.247.451a1.687,1.687,0,0,0,.64-.145c-.209,1.042-.991,1.938.859,2.772.9-.417,1.7-.88,1.177-2.023-.281-.609-.9-.617-1.513-.991l.084-.065Zm-2.327.815a3.564,3.564,0,0,1-.306.481l-.154.231c1.664-.345,2.458,1.821,1.125,2.437a1.347,1.347,0,0,1-1.3-2.356c-.045-.008-.135-.059-.137-.018,0,.1-.526.032-.973-.236q.88-.256,1.746-.538Zm-2.481.746c-.067.272-.117.554-.15.759l-1.219.563a1.838,1.838,0,0,1-.952-.727q1.17-.274,2.321-.594Zm15.528-6.89c-.188.549-.853.793-1.406,1.048l-.173-.081C1348.324,1501.4,1348.849,1501.075,1349.37,1500.745Z" transform="translate(-1299.213 -1472.838)" fill="#13fc7f" fill-rule="evenodd"/>
      <path id="Path_39418" data-name="Path 39418" d="M1305.34,1575.544a3.814,3.814,0,0,1-.2,1.318c-1.482.685-1.812.609-2.468-.771Q1304.015,1575.848,1305.34,1575.544Z" transform="translate(-1273.267 -1540.1)" fill="#13fc7f" fill-rule="evenodd"/>
      <path id="Path_39419" data-name="Path 39419" d="M1280.127,1581.9c.77,1.666-1.747,2.621-2.357,1.3a1.275,1.275,0,0,1,.083-1.37c.664-.093,1.323-.2,1.98-.314A1.067,1.067,0,0,1,1280.127,1581.9Z" transform="translate(-1250.736 -1545.468)" fill="#13fc7f" fill-rule="evenodd"/>
      <path id="Path_39420" data-name="Path 39420" d="M1496.665,1511.639a1.321,1.321,0,0,1-1.648-1.617,1.267,1.267,0,0,1,2.4-.172A1.291,1.291,0,0,1,1496.665,1511.639Z" transform="translate(-1446.183 -1480.315)" fill="#13fc7f" fill-rule="evenodd"/>
      <path id="Path_39421" data-name="Path 39421" d="M1248.875,1586.889a5.434,5.434,0,0,1-.878.461c-.22-.134-.4-.238-.56-.323C1247.918,1586.986,1248.4,1586.941,1248.875,1586.889Z" transform="translate(-1223.601 -1550.302)" fill="#13fc7f" fill-rule="evenodd"/>
      <path id="Path_39422" data-name="Path 39422" d="M1343.368,1580.92c1.516,3.276-2.625,2.79-2.062.687C1341.684,1580.2,1342.782,1580.828,1343.368,1580.92Z" transform="translate(-1307.964 -1544.736)" fill="#13fc7f" fill-rule="evenodd"/>
      <path id="Path_39423" data-name="Path 39423" d="M1406.685,1583.21a1.256,1.256,0,1,1-2.342.872A1.256,1.256,0,0,1,1406.685,1583.21Z" transform="translate(-1364.61 -1546.308)" fill="#13fc7f" fill-rule="evenodd"/>
      <path id="Path_39424" data-name="Path 39424" d="M1432.857,1571.362a1.246,1.246,0,1,1-2.261,1.046A1.246,1.246,0,1,1,1432.857,1571.362Z" transform="translate(-1388.172 -1535.667)" fill="#13fc7f" fill-rule="evenodd"/>
      <path id="Path_39425" data-name="Path 39425" d="M1517.6,1484.465c.179,1.293-.979,1.534-1.726,1.175Q1516.752,1485.067,1517.6,1484.465Z" transform="translate(-1464.992 -1458.198)" fill="#13fc7f" fill-rule="evenodd"/>
      <path id="Path_39426" data-name="Path 39426" d="M1317.351,1593.189l.563,1.219c-1.291,2.117-2.445.653-2.584.349a1.3,1.3,0,0,1,.443-1.56C1316.318,1592.808,1316.8,1593.1,1317.351,1593.189Z" transform="translate(-1284.558 -1555.798)" fill="#13fc7f" fill-rule="evenodd"/>
      <path id="Path_39427" data-name="Path 39427" d="M1539.844,1466.439c.588,1.273-1.408,2.278-2.15,1.24.677-.488,1.342-.993,2-1.508A1.808,1.808,0,0,1,1539.844,1466.439Z" transform="translate(-1484.611 -1441.748)" fill="#13fc7f" fill-rule="evenodd"/>
      <path id="Path_39428" data-name="Path 39428" d="M1483.432,1547.03c1.1,1.416.941,1.379.1,2.492-.377-.006-.657.059-1.031.053a1.343,1.343,0,0,1-.091-2.387C1482.515,1547.142,1483.195,1547.08,1483.432,1547.03Z" transform="translate(-1434.274 -1514.459)" fill="#13fc7f" fill-rule="evenodd"/>
      <path id="Path_39429" data-name="Path 39429" d="M1381.208,1595.624a1.246,1.246,0,0,1-2.262,1.047A1.246,1.246,0,0,1,1381.208,1595.624Z" transform="translate(-1341.745 -1557.514)" fill="#13fc7f" fill-rule="evenodd"/>
      <path id="Path_39430" data-name="Path 39430" d="M1458.5,1560.207c-.024,1.668.406.5-.654,1.784-.755-.04-1.168.218-1.609-.737s.023-1.1.481-1.7C1458.064,1559.626,1457.42,1559.388,1458.5,1560.207Z" transform="translate(-1411.199 -1525.72)" fill="#13fc7f" fill-rule="evenodd"/>
      <path id="Path_39431" data-name="Path 39431" d="M1254.312,1591.795c.239.517.26,2.091-1.941,1.743l-.563-1.218C1253.144,1590.126,1254.3,1591.762,1254.312,1591.795Z" transform="translate(-1227.532 -1554.158)" fill="#13fc7f" fill-rule="evenodd"/>
      <path id="Path_39432" data-name="Path 39432" d="M1217.518,1588.825a1.655,1.655,0,0,1-.046.331c-.458,1.763-2.206.834-2.43-.206l.431-.013C1216.159,1588.913,1216.839,1588.873,1217.518,1588.825Z" transform="translate(-1194.471 -1552.043)" fill="#13fc7f" fill-rule="evenodd"/>
      <path id="Path_39433" data-name="Path 39433" d="M1523.23,1497.828a1.636,1.636,0,0,1-.482,1.7c-1.1.509-3.319-1.213-.525-2.5C1522.53,1497.212,1523.04,1497.418,1523.23,1497.828Z" transform="translate(-1469.481 -1469.494)" fill="#13fc7f" fill-rule="evenodd"/>
      <path id="Path_39434" data-name="Path 39434" d="M1356.426,1606.821a2.281,2.281,0,0,1-.039,1.286c-1.512.7-1.275.483-2.225-.24.065-1.19-.253-1.149,1.26-1.848C1355.725,1606.2,1356.236,1606.411,1356.426,1606.821Z" transform="translate(-1319.573 -1567.504)" fill="#13fc7f" fill-rule="evenodd"/>
      <path id="Path_39435" data-name="Path 39435" d="M1563.512,1451.636c-1.07,1.3-2.146.64-2.372-.2q.814-.652,1.6-1.333C1563.164,1450.267,1563.525,1450.71,1563.512,1451.636Z" transform="translate(-1505.695 -1427.295)" fill="#13fc7f" fill-rule="evenodd"/>
      <path id="Path_39436" data-name="Path 39436" d="M1329.917,1618.794a2.284,2.284,0,0,1-.04,1.287l-1.044.483c-.936-.422-.726-.2-1.247-1.326.422-.935.2-.725,1.326-1.247C1329.216,1618.177,1329.726,1618.384,1329.917,1618.794Z" transform="translate(-1295.674 -1578.27)" fill="#13fc7f" fill-rule="evenodd"/>
      <path id="Path_39437" data-name="Path 39437" d="M1469.473,1585.132l.5.99c-.534.876-.27,1.253-2.088.965l-.482-1.045c.421-.935.2-.725,1.325-1.246Z" transform="translate(-1421.406 -1548.421)" fill="#13fc7f" fill-rule="evenodd"/>
      <path id="Path_39438" data-name="Path 39438" d="M1550.005,1487.132a6.086,6.086,0,0,1-.039,1.285l-1.219.564a6.019,6.019,0,0,1-1.006-.8c.031-.577-.155-1.195.562-1.527C1549.257,1486.209,1549.4,1486.674,1550.005,1487.132Z" transform="translate(-1493.647 -1460.004)" fill="#13fc7f" fill-rule="evenodd"/>
      <path id="Path_39439" data-name="Path 39439" d="M1267.154,1617.122l.483,1.043c-.422.936-.2.726-1.324,1.247-.406-.247-.732-.21-.925-.628a1.187,1.187,0,0,1,.654-1.782C1266.447,1616.814,1266.7,1617.042,1267.154,1617.122Z" transform="translate(-1239.583 -1577.315)" fill="#13fc7f" fill-rule="evenodd"/>
      <path id="Path_39440" data-name="Path 39440" d="M1291.767,1604.4l.489,1.419c-.983.766-.52.551-1.741.805l-.817-1.312c.421-.937.2-.726,1.325-1.247Z" transform="translate(-1261.604 -1565.745)" fill="#13fc7f" fill-rule="evenodd"/>
      <path id="Path_39441" data-name="Path 39441" d="M1509.684,1535.726a2.277,2.277,0,0,1-.04,1.287l-1.474.47c-.766-.983-.551-.52-.8-1.741l1.313-.818C1508.984,1535.109,1509.495,1535.317,1509.684,1535.726Z" transform="translate(-1457.339 -1503.573)" fill="#13fc7f" fill-rule="evenodd"/>
      <path id="Path_39442" data-name="Path 39442" d="M1496.407,1573.616a1.158,1.158,0,1,1-2.169.792c-.194-.417.046-.642.121-1.111l1.044-.483C1495.708,1573,1496.218,1573.207,1496.407,1573.616Z" transform="translate(-1445.468 -1537.645)" fill="#13fc7f" fill-rule="evenodd"/>
      <path id="Path_39443" data-name="Path 39443" d="M1304,1631.779a1.18,1.18,0,0,1-.735,1.608c-.418.193-.643-.047-1.113-.12l-.483-1.044C1302.721,1630.5,1303.672,1631.073,1304,1631.779Z" transform="translate(-1272.368 -1590.048)" fill="#13fc7f" fill-rule="evenodd"/>
      <path id="Path_39444" data-name="Path 39444" d="M1535.033,1527.032a2.79,2.79,0,0,1-.953.227c-.766-.983-.552-.52-.8-1.74C1535.612,1523.676,1536.258,1526.465,1535.033,1527.032Z" transform="translate(-1480.638 -1494.557)" fill="#13fc7f" fill-rule="evenodd"/>
      <path id="Path_39445" data-name="Path 39445" d="M1445.237,1596.9l.818,1.312c-.248.406-.209.731-.63.925-1.255.58-1.926-.1-1.661-1.766Z" transform="translate(-1400.095 -1559.305)" fill="#13fc7f" fill-rule="evenodd"/>
      <path id="Path_39446" data-name="Path 39446" d="M1229.676,1603.777l.47,1.472-1.312.818c-.306-.186-.816-.392-1.005-.8a1.649,1.649,0,0,1,.561-1.527A2.255,2.255,0,0,1,1229.676,1603.777Z" transform="translate(-1205.923 -1565.374)" fill="#13fc7f" fill-rule="evenodd"/>
      <path id="Path_39447" data-name="Path 39447" d="M1419.342,1608.893l.818,1.312c-.783,1.282-.837,1.58-2.331.442a5.992,5.992,0,0,1,.04-1.284Z" transform="translate(-1376.811 -1570.089)" fill="#13fc7f" fill-rule="evenodd"/>
      <path id="Path_39448" data-name="Path 39448" d="M1589.093,1437.774c.194.417-.045.642-.12,1.112l-1.044.483c-1.5-.917-1.052-.863-.887-1.915l1.219-.564A1.969,1.969,0,0,1,1589.093,1437.774Z" transform="translate(-1528.813 -1415.418)" fill="#13fc7f" fill-rule="evenodd"/>
      <path id="Path_39449" data-name="Path 39449" d="M1574.9,1475.7l.483,1.044c-.47.769-.206,1.146-1.835,1.059l-.564-1.218C1573.533,1475.692,1573.124,1475.419,1574.9,1475.7Z" transform="translate(-1516.349 -1450.222)" fill="#13fc7f" fill-rule="evenodd"/>
      <path id="Path_39450" data-name="Path 39450" d="M1609.459,1406.645a2.222,2.222,0,0,1-.052,1.224l-1.045.484-.351-.22C1608.5,1407.645,1608.986,1407.15,1609.459,1406.645Z" transform="translate(-1547.844 -1388.22)" fill="#13fc7f" fill-rule="evenodd"/>
      <path id="Path_39451" data-name="Path 39451" d="M1560.992,1513.6l.482,1.044c-.915,1.5-.862,1.052-1.915.885l-.481-1.043C1559.622,1513.587,1559.212,1513.314,1560.992,1513.6Z" transform="translate(-1503.841 -1484.298)" fill="#13fc7f" fill-rule="evenodd"/>
      <path id="Path_39452" data-name="Path 39452" d="M1393.3,1622.213l.483,1.044c-.758,1.244-.474,1.114-1.914.887l-.484-1.045C1392.107,1621.919,1391.838,1621.955,1393.3,1622.213Z" transform="translate(-1353.047 -1581.934)" fill="#13fc7f" fill-rule="evenodd"/>
      <path id="Path_39453" data-name="Path 39453" d="M1368.291,1633.8l.484,1.044a4.967,4.967,0,0,1-.629.925c-1.275.589-2.472-1.392-.965-2.089C1367.586,1633.5,1367.843,1633.722,1368.291,1633.8Z" transform="translate(-1330.648 -1592.315)" fill="#13fc7f" fill-rule="evenodd"/>
      <path id="Path_39454" data-name="Path 39454" d="M1192.486,1590.251c.68.854.433.22.708,1.545-.677.534-.49.7-1.821.631-.31-.673-1.145-1.944.833-2.173Z" transform="translate(-1172.789 -1553.325)" fill="#13fc7f" fill-rule="evenodd"/>
      <path id="Path_39455" data-name="Path 39455" d="M1522.913,1563.419c0,.115.206,1.384-.48,1.7-1.931.893-2.386-3.1.112-1.876.035.016.092.046.122.062Z" transform="translate(-1469.443 -1528.829)" fill="#13fc7f" fill-rule="evenodd"/>
      <path id="Path_39456" data-name="Path 39456" d="M1615.542,1426.34c.7,1.521-1.568,2.089-2.007,1.139a2.282,2.282,0,0,1,.039-1.287l1.044-.482A4.918,4.918,0,0,1,1615.542,1426.34Z" transform="translate(-1552.732 -1405.364)" fill="#13fc7f" fill-rule="evenodd"/>
      <path id="Path_39457" data-name="Path 39457" d="M1587.125,1501.827a1.3,1.3,0,0,1-.388,1.447,2.265,2.265,0,0,1-1.286-.041l-.483-1.043a4.972,4.972,0,0,1,.63-.924A1.169,1.169,0,0,1,1587.125,1501.827Z" transform="translate(-1527.122 -1473.215)" fill="#13fc7f" fill-rule="evenodd"/>
      <path id="Path_39458" data-name="Path 39458" d="M1280.248,1644.12c.251.543-.057,2.513-2.088.965C1278.3,1642.494,1280.05,1643.693,1280.248,1644.12Z" transform="translate(-1251.229 -1601.181)" fill="#13fc7f" fill-rule="evenodd"/>
      <path id="Path_39459" data-name="Path 39459" d="M1342.86,1645.777l.482,1.045a6.019,6.019,0,0,1-.8,1c-.257-.074-1.17-.245-1.272-.467a1.179,1.179,0,0,1,.48-1.7C1342.152,1645.47,1342.41,1645.7,1342.86,1645.777Z" transform="translate(-1307.825 -1603.084)" fill="#13fc7f" fill-rule="evenodd"/>
      <path id="Path_39460" data-name="Path 39460" d="M1601.7,1464.065a1.182,1.182,0,0,1-.481,1.7c-.419.193-.642-.046-1.112-.122-.632-1.364-.616-1.4.748-2.035C1601.076,1463.745,1601.648,1463.955,1601.7,1464.065Z" transform="translate(-1540.373 -1439.446)" fill="#13fc7f" fill-rule="evenodd"/>
      <path id="Path_39461" data-name="Path 39461" d="M1548.323,1551.349c1.253,2.707-2.147,2.469-1.737.661C1546.837,1550.9,1547.828,1551.272,1548.323,1551.349Z" transform="translate(-1492.576 -1518.234)" fill="#13fc7f" fill-rule="evenodd"/>
      <path id="Path_39462" data-name="Path 39462" d="M1457.268,1624.513a2.268,2.268,0,0,1-.038,1.286c-1.367.631-1.405.617-2.037-.749.208-.338.313-1.232,1.377-.99A1.8,1.8,0,0,1,1457.268,1624.513Z" transform="translate(-1410.423 -1583.69)" fill="#13fc7f" fill-rule="evenodd"/>
      <path id="Path_39463" data-name="Path 39463" d="M1241.672,1630.085c.5,1.073.1,1.849-1.592,1.581l-.483-1.044a6.113,6.113,0,0,1,.8-1.006c.044.014.092-.008.13.037s.1.031.132.036Z" transform="translate(-1216.551 -1588.724)" fill="#13fc7f" fill-rule="evenodd"/>
      <path id="Path_39464" data-name="Path 39464" d="M1167.305,1603.4a1.058,1.058,0,1,1-1.916.888C1164.863,1603.147,1166.779,1602.26,1167.305,1603.4Z" transform="translate(-1149.74 -1564.672)" fill="#13fc7f" fill-rule="evenodd"/>
      <path id="Path_39465" data-name="Path 39465" d="M1156.362,1590.52l.022.114c-1.309,1.02-1.987.57-2.142-.08Q1155.3,1590.558,1156.362,1590.52Z" transform="translate(-1139.798 -1553.567)" fill="#13fc7f" fill-rule="evenodd"/>
      <path id="Path_39466" data-name="Path 39466" d="M1432.631,1636.867c.5,1.076-.774,1.368-1.42,1.5C1429.436,1636.091,1432.083,1635.685,1432.631,1636.867Z" transform="translate(-1388.315 -1594.663)" fill="#13fc7f" fill-rule="evenodd"/>
      <path id="Path_39467" data-name="Path 39467" d="M1629.08,1389.831l.241.522c-.39.64-.533,1.18-1.375.989-.609-.138-.826-.48-.812-.847q.549-.6,1.082-1.218A.8.8,0,0,1,1629.08,1389.831Z" transform="translate(-1565.039 -1372.593)" fill="#13fc7f" fill-rule="evenodd"/>
      <path id="Path_39468" data-name="Path 39468" d="M1205.724,1617.435c.5,1.073.1,1.849-1.592,1.581C1203.078,1616.737,1205.488,1616.925,1205.724,1617.435Z" transform="translate(-1184.421 -1577.477)" fill="#13fc7f" fill-rule="evenodd"/>
      <path id="Path_39469" data-name="Path 39469" d="M1406.684,1648.67a2.267,2.267,0,0,1-.04,1.287l-.87.4c-.639-.389-1.18-.531-.988-1.375C1405.067,1647.745,1406.482,1648.235,1406.684,1648.67Z" transform="translate(-1365.06 -1605.433)" fill="#13fc7f" fill-rule="evenodd"/>
      <path id="Path_39470" data-name="Path 39470" d="M1574.384,1539.68a2.272,2.272,0,0,1-.039,1.286c-1.561.721-2.036-.2-1.86-.975C1572.763,1538.767,1574.176,1539.23,1574.384,1539.68Z" transform="translate(-1515.865 -1507.424)" fill="#13fc7f" fill-rule="evenodd"/>
      <path id="Path_39471" data-name="Path 39471" d="M1317.724,1658.41c.631,1.366.616,1.405-.748,2.037a8.471,8.471,0,0,1-.925-.63c.055-1.016-.056-.717.562-1.526A8.523,8.523,0,0,1,1317.724,1658.41Z" transform="translate(-1285.302 -1614.509)" fill="#13fc7f" fill-rule="evenodd"/>
      <path id="Path_39472" data-name="Path 39472" d="M1483.265,1613.669c-.071,1.334-.416,1.474-1.673,1.406l-.482-1.045a8.566,8.566,0,0,1,.629-.923C1482.755,1613.161,1482.456,1613.052,1483.265,1613.669Z" transform="translate(-1433.729 -1573.878)" fill="#13fc7f" fill-rule="evenodd"/>
      <path id="Path_39473" data-name="Path 39473" d="M1509.361,1601.243l.483,1.046c-.763,1-1.094,1.173-2.156.365.055-1.017-.055-.719.562-1.528A8.628,8.628,0,0,1,1509.361,1601.243Z" transform="translate(-1457.629 -1563.104)" fill="#13fc7f" fill-rule="evenodd"/>
      <path id="Path_39474" data-name="Path 39474" d="M1380.974,1661.177c.163.353.074,1.234-.213,1.366-1.012.468-1.088.024-1.7-.481l.18-.656c.018-.051.089-.2.11-.246s.048-.094.062-.124.047-.1.059-.122.039-.082.058-.124C1379.686,1660.793,1380.711,1660.608,1380.974,1661.177Z" transform="translate(-1341.962 -1616.733)" fill="#13fc7f" fill-rule="evenodd"/>
      <path id="Path_39475" data-name="Path 39475" d="M1534.9,1590.327c.417.9-.322,1.391-1.5,1.327l-.484-1.045c.059-.094.124-.177.22-.352l.237-.492C1534,1589.774,1534.554,1589.57,1534.9,1590.327Z" transform="translate(-1480.32 -1552.872)" fill="#13fc7f" fill-rule="evenodd"/>
      <path id="Path_39476" data-name="Path 39476" d="M1254.312,1656.826c.617,1.336-.139,1.382-1.164,1.6-.783-.993-.4-.223-.645-1.393C1252.694,1656.881,1253.809,1655.74,1254.312,1656.826Z" transform="translate(-1228.157 -1612.775)" fill="#13fc7f" fill-rule="evenodd"/>
      <path id="Path_39477" data-name="Path 39477" d="M1613.63,1490.686c.617,1.335-.138,1.382-1.165,1.594-.784-.993-.4-.222-.643-1.393C1612.013,1490.74,1613.127,1489.6,1613.63,1490.686Z" transform="translate(-1551.27 -1463.375)" fill="#13fc7f" fill-rule="evenodd"/>
      <path id="Path_39478" data-name="Path 39478" d="M1180.623,1629.65c.351.759-.162,1.045-.562,1.528-.044-.013-.132-.072-.131-.037s-.1-.027-.132-.036l-.885-.339-.125-.057c0-.18-.28-1.831,1.134-1.511A1.777,1.777,0,0,1,1180.623,1629.65Z" transform="translate(-1161.85 -1588.311)" fill="#13fc7f" fill-rule="evenodd"/>
      <path id="Path_39479" data-name="Path 39479" d="M1627.134,1452.547c1.691,2.169-.825,2.328-1.162,1.6a2.773,2.773,0,0,1-.23-.952A1.686,1.686,0,0,1,1627.134,1452.547Z" transform="translate(-1563.787 -1429.496)" fill="#13fc7f" fill-rule="evenodd"/>
      <path id="Path_39480" data-name="Path 39480" d="M1130.3,1590.919c.058.125.1,2.441-2,.71l.291-.9c.016-.035.047-.092.062-.122s.047-.1.059-.124.038-.082.057-.123h.071q.465.02.931.032A.894.894,0,0,1,1130.3,1590.919Z" transform="translate(-1116.47 -1553.421)" fill="#13fc7f" fill-rule="evenodd"/>
      <path id="Path_39481" data-name="Path 39481" d="M1217.993,1642.368a8.635,8.635,0,0,1-.119,1.111l-1.3.39c-.3-.517-.151-.33-.5-.616a8.715,8.715,0,0,1,.12-1.111l.871-.4A8.531,8.531,0,0,1,1217.993,1642.368Z" transform="translate(-1195.403 -1599.625)" fill="#13fc7f" fill-rule="evenodd"/>
      <path id="Path_39482" data-name="Path 39482" d="M1355.879,1672.254c.388.839-1.05,2.3-1.822.63-.379-.818.514-1.082,1.072-1.339A2.4,2.4,0,0,1,1355.879,1672.254Z" transform="translate(-1319.396 -1626.428)" fill="#13fc7f" fill-rule="evenodd"/>
      <path id="Path_39483" data-name="Path 39483" d="M1293,1670.919l.322.7c-1.1,1.44-2.125.911-2.035-.748C1291.845,1670.61,1292.623,1670.1,1293,1670.919Z" transform="translate(-1263.029 -1625.463)" fill="#13fc7f" fill-rule="evenodd"/>
      <path id="Path_39484" data-name="Path 39484" d="M1640.1,1479.819a.959.959,0,0,1-1.74.805A.959.959,0,0,1,1640.1,1479.819Z" transform="translate(-1575.049 -1453.541)" fill="#13fc7f" fill-rule="evenodd"/>
      <path id="Path_39485" data-name="Path 39485" d="M1495.83,1639.607c.46.995-.182,1.141-.99,1.514-.576-.441-1.493-1.21-.028-1.889A.738.738,0,0,1,1495.83,1639.607Z" transform="translate(-1445.341 -1597.3)" fill="#13fc7f" fill-rule="evenodd"/>
      <path id="Path_39486" data-name="Path 39486" d="M1469.911,1651.591c.46,1-.182,1.141-.99,1.514-.577-.439-1.5-1.21-.028-1.888A.735.735,0,0,1,1469.911,1651.591Z" transform="translate(-1422.033 -1608.076)" fill="#13fc7f" fill-rule="evenodd"/>
      <path id="Path_39487" data-name="Path 39487" d="M1601.119,1528.77a2.739,2.739,0,0,1,.229.95l-.964.658C1598.192,1529.042,1600.564,1527.571,1601.119,1528.77Z" transform="translate(-1540.163 -1497.641)" fill="#13fc7f" fill-rule="evenodd"/>
      <path id="Path_39488" data-name="Path 39488" d="M1094.077,1587.134a3.4,3.4,0,0,1-.407.591c-1.19-.064-1.22-.1-1.334-.775Q1093.2,1587.056,1094.077,1587.134Z" transform="translate(-1084.129 -1550.357)" fill="#13fc7f" fill-rule="evenodd"/>
      <path id="Path_39489" data-name="Path 39489" d="M1329.685,1684.451l.657.964c-.841,1.379-1.733.823-1.821.63a2.745,2.745,0,0,1-.229-.95A1.677,1.677,0,0,1,1329.685,1684.451Z" transform="translate(-1296.309 -1638.033)" fill="#13fc7f" fill-rule="evenodd"/>
      <path id="Path_39490" data-name="Path 39490" d="M1142.991,1616.765c.475,1.027-1.112,2.165-1.741.8C1140.742,1616.472,1142.637,1616,1142.991,1616.765Z" transform="translate(-1128.037 -1576.83)" fill="#13fc7f" fill-rule="evenodd"/>
      <path id="Path_39491" data-name="Path 39491" d="M1642.484,1416.721a2.756,2.756,0,0,1,.228.95c-2.132,1.662-2.252-.649-1.514-.989C1641.581,1416.505,1642.276,1416.269,1642.484,1416.721Z" transform="translate(-1577.318 -1397.046)" fill="#13fc7f" fill-rule="evenodd"/>
      <path id="Path_39492" data-name="Path 39492" d="M1654.186,1361.413a5.283,5.283,0,0,1,.033.582c-.281.13-.529.263-.751.339C1653.709,1362.029,1653.95,1361.723,1654.186,1361.413Z" transform="translate(-1588.72 -1347.545)" fill="#13fc7f" fill-rule="evenodd"/>
      <path id="Path_39493" data-name="Path 39493" d="M1267.454,1682.512c.328.415.326.247.5.614a1.292,1.292,0,0,1-.295,1.193,2.393,2.393,0,0,1-1.031.054C1266.213,1683.484,1265.745,1682.619,1267.454,1682.512Z" transform="translate(-1240.508 -1636.29)" fill="#13fc7f" fill-rule="evenodd"/>
      <path id="Path_39494" data-name="Path 39494" d="M1192.835,1655.6c.5,1.089-1,1.135-1.152,1.165-.327-.415-.325-.248-.5-.616C1190.771,1655.247,1192.093,1653.994,1192.835,1655.6Z" transform="translate(-1172.948 -1611.394)" fill="#13fc7f" fill-rule="evenodd"/>
      <path id="Path_39495" data-name="Path 39495" d="M1105.268,1603.1c.564,1.222-1.287,1.785-1.578,1.154a2.759,2.759,0,0,1-.229-.95c.415-.326.247-.326.615-.5A1.29,1.29,0,0,1,1105.268,1603.1Z" transform="translate(-1094.133 -1564.571)" fill="#13fc7f" fill-rule="evenodd"/>
      <path id="Path_39496" data-name="Path 39496" d="M1230.383,1669.553a.867.867,0,1,1-1.567.725A.867.867,0,1,1,1230.383,1669.553Z" transform="translate(-1206.759 -1624.12)" fill="#13fc7f" fill-rule="evenodd"/>
      <path id="Path_39497" data-name="Path 39497" d="M1561.993,1578.809l.322.7c-.238.289-.469.461-.709.75l-.938-.2C1559.759,1578.091,1561.677,1578.126,1561.993,1578.809Z" transform="translate(-1505.053 -1542.655)" fill="#13fc7f" fill-rule="evenodd"/>
      <path id="Path_39498" data-name="Path 39498" d="M1522.1,1628.425c.41.886-.355,1.221-.989,1.514C1519.046,1628.369,1521.686,1627.534,1522.1,1628.425Z" transform="translate(-1468.997 -1587.325)" fill="#13fc7f" fill-rule="evenodd"/>
      <path id="Path_39499" data-name="Path 39499" d="M1626.322,1517.319a1.393,1.393,0,0,1-.153,1.245c-.011.025-.042.081-.061.122-.375-.005-.656.06-1.03.055l-.484-1.045a2.419,2.419,0,0,1,.71-.75A1.8,1.8,0,0,1,1626.322,1517.319Z" transform="translate(-1562.755 -1487.398)" fill="#13fc7f" fill-rule="evenodd"/>
      <path id="Path_39500" data-name="Path 39500" d="M1655.13,1442.077c-.014.043-.047.071-.034.132.188.839-1.89,2.047-1.761-.359l1.045-.483C1654.669,1441.606,1654.84,1441.837,1655.13,1442.077Z" transform="translate(-1588.595 -1419.443)" fill="#13fc7f" fill-rule="evenodd"/>
      <path id="Path_39501" data-name="Path 39501" d="M1393.655,1687.636a.871.871,0,1,1-1.567.724C1391.652,1687.416,1393.218,1686.692,1393.655,1687.636Z" transform="translate(-1353.609 -1640.5)" fill="#13fc7f" fill-rule="evenodd"/>
      <path id="Path_39502" data-name="Path 39502" d="M1419.57,1675.655a.871.871,0,1,1-1.567.724C1417.566,1675.435,1419.132,1674.711,1419.57,1675.655Z" transform="translate(-1376.912 -1629.727)" fill="#13fc7f" fill-rule="evenodd"/>
      <path id="Path_39503" data-name="Path 39503" d="M1445.48,1663.674a.871.871,0,1,1-1.566.724C1443.478,1663.454,1445.043,1662.73,1445.48,1663.674Z" transform="translate(-1400.213 -1618.953)" fill="#13fc7f" fill-rule="evenodd"/>
      <path id="Path_39504" data-name="Path 39504" d="M1587.236,1566.682a.871.871,0,1,1-1.566.724C1585.234,1566.462,1586.8,1565.737,1587.236,1566.682Z" transform="translate(-1527.685 -1531.733)" fill="#13fc7f" fill-rule="evenodd"/>
      <path id="Path_39505" data-name="Path 39505" d="M1655.962,1379.731a.872.872,0,1,1-1.568.725C1653.958,1379.511,1655.526,1378.787,1655.962,1379.731Z" transform="translate(-1589.485 -1363.62)" fill="#13fc7f" fill-rule="evenodd"/>
      <path id="Path_39506" data-name="Path 39506" d="M1154.135,1642.581c.6,1.291-.687,1.261-1.07,1.34l-.657-.962C1153.1,1641.828,1153.843,1641.95,1154.135,1642.581Z" transform="translate(-1138.148 -1599.955)" fill="#13fc7f" fill-rule="evenodd"/>
      <path id="Path_39507" data-name="Path 39507" d="M1547.765,1615.723c.673,1.456-1.193,1.533-1.487.9-.391-.849.3-1.2.816-1.434C1547.451,1615.406,1547.585,1615.334,1547.765,1615.723Z" transform="translate(-1492.227 -1575.751)" fill="#13fc7f" fill-rule="evenodd"/>
      <path id="Path_39508" data-name="Path 39508" d="M1668.232,1404.646c.785,1.7-1.158,1.612-1.406,1.073-.392-.847.3-1.195.817-1.433C1667.8,1404.38,1668.19,1404.553,1668.232,1404.646Z" transform="translate(-1600.628 -1386.098)" fill="#13fc7f" fill-rule="evenodd"/>
      <path id="Path_39509" data-name="Path 39509" d="M1613.242,1555.32c.391.848-.3,1.195-.817,1.435C1610.376,1555.551,1612.774,1554.311,1613.242,1555.32Z" transform="translate(-1551.078 -1521.58)" fill="#13fc7f" fill-rule="evenodd"/>
      <path id="Path_39510" data-name="Path 39510" d="M1670.051,1342.564a.867.867,0,1,1-1.568.724.653.653,0,0,1-.058-.209l.548-.769A.777.777,0,0,1,1670.051,1342.564Z" transform="translate(-1602.171 -1330.272)" fill="#13fc7f" fill-rule="evenodd"/>
      <path id="Path_39511" data-name="Path 39511" d="M1573.831,1604.94c.622,1.345-1.2,1.525-1.486.9C1571.84,1604.748,1573.424,1604.063,1573.831,1604.94Z" transform="translate(-1515.682 -1566.175)" fill="#13fc7f" fill-rule="evenodd"/>
      <path id="Path_39512" data-name="Path 39512" d="M1368.983,1699.818l.4.87c-.719.945-.734.982-1.726.377C1367.715,1699.993,1367.613,1699.671,1368.983,1699.818Z" transform="translate(-1331.708 -1651.821)" fill="#13fc7f" fill-rule="evenodd"/>
      <path id="Path_39513" data-name="Path 39513" d="M1205.444,1682.5c.263.566-.183.9-.468,1.272-.043-.012-.131-.069-.132-.034l-.966-.514c0-.066.011-.479.032-.566l.262-.626C1204.64,1682.057,1205.182,1681.932,1205.444,1682.5Z" transform="translate(-1184.431 -1635.858)" fill="#13fc7f" fill-rule="evenodd"/>
      <path id="Path_39514" data-name="Path 39514" d="M1305.511,1697.347a2.426,2.426,0,0,1,.054,1.032l-1.465.053c-.031-.013-.1-.04-.124-.053s-.084-.034-.125-.052C1303.974,1696.015,1305.5,1697.328,1305.511,1697.347Z" transform="translate(-1274.33 -1649.281)" fill="#13fc7f" fill-rule="evenodd"/>
      <path id="Path_39515" data-name="Path 39515" d="M1118.235,1629.137l.4.871-.527.677-1.2-.3C1116.968,1629.314,1116.865,1628.991,1118.235,1629.137Z" transform="translate(-1106.226 -1588.263)" fill="#13fc7f" fill-rule="evenodd"/>
      <path id="Path_39516" data-name="Path 39516" d="M1342.458,1712.044l.4.871-.526.677-.866-.047-.4-.856C1341.553,1712.048,1341.543,1712.019,1342.458,1712.044Z" transform="translate(-1307.795 -1662.841)" fill="#13fc7f" fill-rule="evenodd"/>
      <path id="Path_39517" data-name="Path 39517" d="M1243.253,1696.685l-.871.4-.676-.526.045-.867.859-.4C1243.263,1695.79,1243.267,1695.759,1243.253,1696.685Z" transform="translate(-1218.448 -1647.783)" fill="#13fc7f" fill-rule="evenodd"/>
      <path id="Path_39518" data-name="Path 39518" d="M1508.192,1666.625l.4.858c-.5.654-.467.658-1.392.644l-.4-.871.526-.678Z" transform="translate(-1456.83 -1621.962)" fill="#13fc7f" fill-rule="evenodd"/>
      <path id="Path_39519" data-name="Path 39519" d="M1166.948,1667.955c.263.567-.091.888-.548,1.1-.676.313-.789-.334-1.086-.977l.964-.658C1166.635,1667.638,1166.768,1667.566,1166.948,1667.955Z" transform="translate(-1149.753 -1622.718)" fill="#13fc7f" fill-rule="evenodd"/>
      <path id="Path_39520" data-name="Path 39520" d="M1068.853,1590.06c.551,1.19-.84,1.834-1.392.643C1067.113,1589.951,1068.505,1589.307,1068.853,1590.06Z" transform="translate(-1061.71 -1552.851)" fill="#13fc7f" fill-rule="evenodd"/>
      <path id="Path_39521" data-name="Path 39521" d="M1457.568,1690.138c-.013.044-.049.072-.036.131l-.339.886c-2.343-.125-.968-1.454-.725-1.566C1456.785,1689.443,1457.333,1689.959,1457.568,1690.138Z" transform="translate(-1411.012 -1642.631)" fill="#13fc7f" fill-rule="evenodd"/>
      <path id="Path_39522" data-name="Path 39522" d="M1681.343,1430.7l-.045.867c-.906.434-1,.551-1.355-.212-.334-.724.323-1,.722-1.181Z" transform="translate(-1612.445 -1409.379)" fill="#13fc7f" fill-rule="evenodd"/>
      <path id="Path_39523" data-name="Path 39523" d="M1653.575,1507.25a.767.767,0,0,1-1.393.644A.767.767,0,0,1,1653.575,1507.25Z" transform="translate(-1587.491 -1478.282)" fill="#13fc7f" fill-rule="evenodd"/>
      <path id="Path_39524" data-name="Path 39524" d="M1667.5,1469.361a.767.767,0,0,1-1.393.644A.767.767,0,0,1,1667.5,1469.361Z" transform="translate(-1600.014 -1444.211)" fill="#13fc7f" fill-rule="evenodd"/>
      <path id="Path_39525" data-name="Path 39525" d="M1280.859,1710.548c.634,1.37-.692,1.19-1.15,1.167C1279.029,1710.248,1280.529,1709.834,1280.859,1710.548Z" transform="translate(-1252.464 -1661.194)" fill="#13fc7f" fill-rule="evenodd"/>
      <path id="Path_39526" data-name="Path 39526" d="M1535.056,1655.205a2.761,2.761,0,0,1,.229.95c-.91.421-1.15.715-1.541-.133S1534.869,1654.8,1535.056,1655.205Z" transform="translate(-1481.003 -1611.588)" fill="#13fc7f" fill-rule="evenodd"/>
      <path id="Path_39527" data-name="Path 39527" d="M1433.032,1702.117l-.1.394c-.013.031-.029.095-.044.129a2.371,2.371,0,0,1-.4.575l-1.018-.374C1431.546,1701.321,1431.843,1701.212,1433.032,1702.117Z" transform="translate(-1389.087 -1653.403)" fill="#13fc7f" fill-rule="evenodd"/>
      <path id="Path_39528" data-name="Path 39528" d="M1482.285,1678.614l.04,1.447a1.263,1.263,0,0,0-.776.148l-.657-.963.524-.677Z" transform="translate(-1433.534 -1632.744)" fill="#13fc7f" fill-rule="evenodd"/>
      <path id="Path_39529" data-name="Path 39529" d="M1407.087,1715.125a2.86,2.86,0,0,1,.054,1.031c-.917.424-1.009.56-1.367-.214C1405.385,1715.1,1406.541,1714.932,1407.087,1715.125Z" transform="translate(-1365.913 -1665.552)" fill="#13fc7f" fill-rule="evenodd"/>
      <path id="Path_39530" data-name="Path 39530" d="M1081.4,1616.661c.349.754-1.044,1.4-1.393.645A.767.767,0,0,1,1081.4,1616.661Z" transform="translate(-1072.974 -1576.667)" fill="#13fc7f" fill-rule="evenodd"/>
      <path id="Path_39531" data-name="Path 39531" d="M1690.2,1308.347c.411.888-.186,1.418-.734,1.127q.365-.578.717-1.164Z" transform="translate(-1621.088 -1299.793)" fill="#13fc7f" fill-rule="evenodd"/>
      <path id="Path_39532" data-name="Path 39532" d="M1560.945,1644.191c.33.712-.833,1.855-1.393.645C1559.115,1643.891,1560.734,1643.732,1560.945,1644.191Z" transform="translate(-1504.2 -1601.608)" fill="#13fc7f" fill-rule="evenodd"/>
      <path id="Path_39533" data-name="Path 39533" d="M1318.282,1724.343c.6,1.293-1.143,1.185-1.312.819C1316.6,1724.364,1317.882,1723.477,1318.282,1724.343Z" transform="translate(-1286.069 -1673.586)" fill="#13fc7f" fill-rule="evenodd"/>
      <path id="Path_39534" data-name="Path 39534" d="M1131.056,1655.066c.621,1.331-.728,2.069-1.23.981l.364-1.026Z" transform="translate(-1117.841 -1611.569)" fill="#13fc7f" fill-rule="evenodd"/>
      <path id="Path_39535" data-name="Path 39535" d="M1640.155,1544.392l-.284,1.2-.867-.045C1638.321,1544.125,1639.816,1543.661,1640.155,1544.392Z" transform="translate(-1575.555 -1511.779)" fill="#13fc7f" fill-rule="evenodd"/>
      <path id="Path_39536" data-name="Path 39536" d="M1218.014,1709.262a.676.676,0,1,1-1.219.564A.676.676,0,1,1,1218.014,1709.262Z" transform="translate(-1195.968 -1659.931)" fill="#13fc7f" fill-rule="evenodd"/>
      <path id="Path_39537" data-name="Path 39537" d="M1180.124,1695.334a.676.676,0,1,1-1.218.564A.676.676,0,1,1,1180.124,1695.334Z" transform="translate(-1161.896 -1647.406)" fill="#13fc7f" fill-rule="evenodd"/>
      <path id="Path_39538" data-name="Path 39538" d="M1381.74,1726.964a2.812,2.812,0,0,1,.055,1.03C1379.83,1728.9,1380.1,1726.379,1381.74,1726.964Z" transform="translate(-1343.179 -1676.183)" fill="#13fc7f" fill-rule="evenodd"/>
      <path id="Path_39539" data-name="Path 39539" d="M1683.4,1369.385c.462,1-.755,1.563-1.217.562C1681.841,1369.206,1683.058,1368.642,1683.4,1369.385Z" transform="translate(-1614.489 -1354.4)" fill="#13fc7f" fill-rule="evenodd"/>
      <path id="Path_39540" data-name="Path 39540" d="M1600.746,1594.207c.461,1-.757,1.563-1.219.564C1599.183,1594.028,1600.4,1593.464,1600.746,1594.207Z" transform="translate(-1540.159 -1556.569)" fill="#13fc7f" fill-rule="evenodd"/>
      <path id="Path_39541" data-name="Path 39541" d="M1092.6,1642.272c.334.724-.324.994-.723,1.179a2.85,2.85,0,0,1-.75-.708C1091.961,1641.374,1092.594,1642.264,1092.6,1642.272Z" transform="translate(-1083.04 -1599.842)" fill="#13fc7f" fill-rule="evenodd"/>
      <path id="Path_39542" data-name="Path 39542" d="M1355.871,1738.917c-.122,2.3-2.366.461-.937-.2C1355.368,1738.516,1355.592,1738.71,1355.871,1738.917Z" transform="translate(-1319.84 -1686.755)" fill="#13fc7f" fill-rule="evenodd"/>
      <path id="Path_39543" data-name="Path 39543" d="M1695.38,1395.291a.675.675,0,1,1-1.218.564C1693.819,1395.113,1695.036,1394.549,1695.38,1395.291Z" transform="translate(-1625.259 -1377.696)" fill="#13fc7f" fill-rule="evenodd"/>
      <path id="Path_39544" data-name="Path 39544" d="M1255.9,1723.2c.344.741-.875,1.3-1.219.563A.676.676,0,1,1,1255.9,1723.2Z" transform="translate(-1230.04 -1672.46)" fill="#13fc7f" fill-rule="evenodd"/>
      <path id="Path_39545" data-name="Path 39545" d="M1626.455,1583.035c.316.681-.646,1.8-1.218.563C1624.8,1582.642,1626.262,1582.615,1626.455,1583.035Z" transform="translate(-1563.26 -1546.604)" fill="#13fc7f" fill-rule="evenodd"/>
      <path id="Path_39546" data-name="Path 39546" d="M1693.856,1458.142c.215.467-.015.632-.2.939-.947-.051-.263.2-1.018-.375.052-.946-.2-.263.375-1.018C1693.365,1457.745,1693.641,1457.677,1693.856,1458.142Z" transform="translate(-1623.931 -1434.119)" fill="#13fc7f" fill-rule="evenodd"/>
      <path id="Path_39547" data-name="Path 39547" d="M1587.865,1632.308c-.337.266-1.056.915-1.379.216C1586.231,1631.974,1586.993,1630.422,1587.865,1632.308Z" transform="translate(-1528.442 -1590.328)" fill="#13fc7f" fill-rule="evenodd"/>
      <path id="Path_39548" data-name="Path 39548" d="M1697.907,1332.227c.184.4.035.23.147.777-1.959.905-1.288-.884-1.085-.978A.819.819,0,0,1,1697.907,1332.227Z" transform="translate(-1627.59 -1321.062)" fill="#13fc7f" fill-rule="evenodd"/>
      <path id="Path_39549" data-name="Path 39549" d="M1666.175,1533.747c-.155.974-.551,1.157-1.392.644.05-.948-.2-.264.374-1.019C1666.1,1533.423,1665.42,1533.171,1666.175,1533.747Z" transform="translate(-1598.884 -1502.167)" fill="#13fc7f" fill-rule="evenodd"/>
      <path id="Path_39550" data-name="Path 39550" d="M1709.715,1358.036a.68.68,0,0,1-1.139.738A.68.68,0,0,1,1709.715,1358.036Z" transform="translate(-1638.19 -1344.259)" fill="#13fc7f" fill-rule="evenodd"/>
      <path id="Path_39551" data-name="Path 39551" d="M1613.14,1620.758a.679.679,0,0,1-1.137.739A.679.679,0,0,1,1613.14,1620.758Z" transform="translate(-1551.348 -1580.509)" fill="#13fc7f" fill-rule="evenodd"/>
      <path id="Path_39552" data-name="Path 39552" d="M1143.256,1682.769c-.745.58-.73.6-1.46.041.055-.353-.01-.628.455-.843C1142.88,1681.676,1142.976,1682.164,1143.256,1682.769Z" transform="translate(-1128.605 -1635.722)" fill="#13fc7f" fill-rule="evenodd"/>
      <path id="Path_39553" data-name="Path 39553" d="M1106.143,1668.841c-.608.473-.29.328-1.044.483-.28-.606-.588-.994.039-1.285S1105.864,1668.236,1106.143,1668.841Z" transform="translate(-1095.311 -1623.198)" fill="#13fc7f" fill-rule="evenodd"/>
      <path id="Path_39554" data-name="Path 39554" d="M1679.928,1496.049c.263.57-.2,1.185-1.221.564.053-.947-.2-.264.376-1.018C1679.438,1495.65,1679.714,1495.584,1679.928,1496.049Z" transform="translate(-1611.407 -1468.207)" fill="#13fc7f" fill-rule="evenodd"/>
      <path id="Path_39555" data-name="Path 39555" d="M1496.483,1705.932c-.05.948.2.263-.374,1.017C1494.4,1706.679,1495.3,1705.045,1496.483,1705.932Z" transform="translate(-1446.365 -1657.115)" fill="#13fc7f" fill-rule="evenodd"/>
      <path id="Path_39556" data-name="Path 39556" d="M1522.445,1693.885c-.015.042-.051.072-.04.13l-.415.714c-1.177-.186-1.133-.955-.564-1.219C1521.958,1693.264,1522.075,1693.589,1522.445,1693.885Z" transform="translate(-1469.634 -1646.102)" fill="#13fc7f" fill-rule="evenodd"/>
      <path id="Path_39557" data-name="Path 39557" d="M1707.988,1420.558c.13.282-.29.625-.455.844l-.844-.456c.109-.693-.015-.6.8-1C1707.819,1420.356,1707.816,1420.189,1707.988,1420.558Z" transform="translate(-1636.578 -1400.177)" fill="#13fc7f" fill-rule="evenodd"/>
      <path id="Path_39558" data-name="Path 39558" d="M1652.99,1571.582c-.065,1.224.035.876-.977,1.086-.363-.833-.327-.686.039-1.285Z" transform="translate(-1587.183 -1536.358)" fill="#13fc7f" fill-rule="evenodd"/>
      <path id="Path_39559" data-name="Path 39559" d="M1044.938,1603.252c-.086,1.628-.944,1.155-1.137.738-.214-.467.014-.632.2-.937Z" transform="translate(-1040.406 -1564.837)" fill="#13fc7f" fill-rule="evenodd"/>
      <path id="Path_39560" data-name="Path 39560" d="M1471.074,1717.7l-.2.937c-1.826-.1-.757-1.129-.738-1.138C1470.571,1717.3,1470.8,1717.491,1471.074,1717.7Z" transform="translate(-1423.566 -1667.674)" fill="#13fc7f" fill-rule="evenodd"/>
      <path id="Path_39561" data-name="Path 39561" d="M1293.732,1737.733c-.1,1.826-1.129.76-1.138.739-.216-.466.013-.631.2-.937Z" transform="translate(-1264.129 -1685.768)" fill="#13fc7f" fill-rule="evenodd"/>
      <path id="Path_39562" data-name="Path 39562" d="M1445.591,1729.461l-.2.937c-.947-.05-.263.2-1.018-.373C1444.477,1729.359,1444.666,1728.77,1445.591,1729.461Z" transform="translate(-1400.693 -1678.23)" fill="#13fc7f" fill-rule="evenodd"/>
      <path id="Path_39563" data-name="Path 39563" d="M1230.188,1735.343c-.208,1.309-1.024,1.111-1.286-.04l.87-.4C1230,1735.176,1229.941,1735.2,1230.188,1735.343Z" transform="translate(-1206.934 -1683.4)" fill="#13fc7f" fill-rule="evenodd"/>
      <path id="Path_39564" data-name="Path 39564" d="M1155.945,1708.148a.577.577,0,1,1-1.045.484A.577.577,0,1,1,1155.945,1708.148Z" transform="translate(-1140.328 -1659.013)" fill="#13fc7f" fill-rule="evenodd"/>
      <path id="Path_39565" data-name="Path 39565" d="M1193.472,1721.879c.185.4.037.229.15.776-1.445.629-1.426-.608-.832-.884C1193.076,1721.639,1193.36,1721.636,1193.472,1721.879Z" transform="translate(-1174.118 -1671.513)" fill="#13fc7f" fill-rule="evenodd"/>
      <path id="Path_39566" data-name="Path 39566" d="M1548.139,1681.639c.629,1.444-.608,1.427-.884.831C1546.932,1681.768,1547.594,1681.675,1548.139,1681.639Z" transform="translate(-1493.133 -1635.505)" fill="#13fc7f" fill-rule="evenodd"/>
      <path id="Path_39567" data-name="Path 39567" d="M1420.9,1741.594c.286.619-.1.679-.8,1.005C1419.164,1740.593,1420.843,1741.481,1420.9,1741.594Z" transform="translate(-1378.609 -1689.156)" fill="#13fc7f" fill-rule="evenodd"/>
      <path id="Path_39568" data-name="Path 39568" d="M1331.167,1750.8l.4.869c-1.3.6-1.618.2-1-.8A2.073,2.073,0,0,0,1331.167,1750.8Z" transform="translate(-1298.081 -1697.693)" fill="#13fc7f" fill-rule="evenodd"/>
      <path id="Path_39569" data-name="Path 39569" d="M1711.811,1295.932c.215.465.032,1.139-1.044.483a1.357,1.357,0,0,0-.068-.6C1711.263,1295.568,1711.543,1295.354,1711.811,1295.932Z" transform="translate(-1640.184 -1288.33)" fill="#13fc7f" fill-rule="evenodd"/>
      <path id="Path_39570" data-name="Path 39570" d="M1393.887,1753.68c.274.6-.514,1.549-1.206.135.4-.335.149-.052.441-.416C1393.331,1753.432,1393.776,1753.441,1393.887,1753.68Z" transform="translate(-1354.21 -1700.034)" fill="#13fc7f" fill-rule="evenodd"/>
      <path id="Path_39571" data-name="Path 39571" d="M1573.538,1670.6c.275.6-.512,1.549-1.2.135.4-.335.15-.053.441-.416C1572.983,1670.357,1573.429,1670.366,1573.538,1670.6Z" transform="translate(-1515.761 -1625.33)" fill="#13fc7f" fill-rule="evenodd"/>
      <path id="Path_39572" data-name="Path 39572" d="M1677.92,1560.423c.694,1.5-2.247.616-.682-.107C1677.522,1560.183,1677.808,1560.179,1677.92,1560.423Z" transform="translate(-1609.676 -1526.325)" fill="#13fc7f" fill-rule="evenodd"/>
      <path id="Path_39573" data-name="Path 39573" d="M1720.561,1447.624c.344.742-.542,1.115-.87.4C1719.348,1447.285,1720.232,1446.911,1720.561,1447.624Z" transform="translate(-1648.2 -1424.726)" fill="#13fc7f" fill-rule="evenodd"/>
      <path id="Path_39574" data-name="Path 39574" d="M1068.524,1636.939" transform="translate(-1062.716 -1595.309)" fill="#13fc7f" fill-rule="evenodd"/>
      <path id="Path_39575" data-name="Path 39575" d="M1721.674,1384.809c-.58.267-.654-.077-.923-.628l.869-.4C1721.788,1384.165,1722.076,1384.623,1721.674,1384.809Z" transform="translate(-1649.223 -1367.658)" fill="#13fc7f" fill-rule="evenodd"/>
      <path id="Path_39576" data-name="Path 39576" d="M1639.112,1610.238c.267.579-.077.655-.629.925l-.4-.87C1638.469,1610.124,1638.927,1609.838,1639.112,1610.238Z" transform="translate(-1574.883 -1571.116)" fill="#13fc7f" fill-rule="evenodd"/>
      <path id="Path_39577" data-name="Path 39577" d="M1706.717,1485.947c-.961.863-1.4-.408-.924-.628C1706.361,1485.054,1706.459,1485.389,1706.717,1485.947Z" transform="translate(-1635.598 -1458.883)" fill="#13fc7f" fill-rule="evenodd"/>
      <path id="Path_39578" data-name="Path 39578" d="M1692.46,1523.689l-.043.432C1690.7,1524.914,1691.13,1522.7,1692.46,1523.689Z" transform="translate(-1622.731 -1493.236)" fill="#13fc7f" fill-rule="evenodd"/>
      <path id="Path_39579" data-name="Path 39579" d="M1599.77,1660.176c.684,1.478-1.8.408-.683-.107C1599.37,1659.938,1599.658,1659.933,1599.77,1660.176Z" transform="translate(-1539.555 -1616.028)" fill="#13fc7f" fill-rule="evenodd"/>
      <path id="Path_39580" data-name="Path 39580" d="M1724.213,1321.667c.684,1.478-1.8.409-.682-.106C1723.816,1321.429,1724.1,1321.424,1724.213,1321.667Z" transform="translate(-1651.46 -1311.628)" fill="#13fc7f" fill-rule="evenodd"/>
      <path id="Path_39581" data-name="Path 39581" d="M1269.113,1750.536c.268.58-.076.656-.629.925-.168-.388-.455-.846-.054-1.031C1268.714,1750.3,1269,1750.293,1269.113,1750.536Z" transform="translate(-1242.296 -1697.283)" fill="#13fc7f" fill-rule="evenodd"/>
      <path id="Path_39582" data-name="Path 39582" d="M1068.787,1655.368c.215.466.033,1.139-1.044.483C1067.929,1655.532,1068.474,1654.69,1068.787,1655.368Z" transform="translate(-1062.014 -1611.65)" fill="#13fc7f" fill-rule="evenodd"/>
      <path id="Path_39583" data-name="Path 39583" d="M1118.5,1694.765l-.247.838-.838-.247.247-.837Z" transform="translate(-1106.681 -1647.087)" fill="#13fc7f" fill-rule="evenodd"/>
      <path id="Path_39584" data-name="Path 39584" d="M1369.154,1765.845l-.161.722-.838-.248.064-.487.666-.318Z" transform="translate(-1332.156 -1710.929)" fill="#13fc7f" fill-rule="evenodd"/>
      <path id="Path_39585" data-name="Path 39585" d="M1306.9,1764.01c.118.675.153.58-.374,1.018C1305.62,1764.6,1306.318,1763.728,1306.9,1764.01Z" transform="translate(-1276.345 -1709.527)" fill="#13fc7f" fill-rule="evenodd"/>
      <path id="Path_39586" data-name="Path 39586" d="M1206.343,1748.839l-.136.241c-.289.123-.135.259-.813-.011l.225-.785.432.173C1206.313,1748.683,1206.154,1748.507,1206.343,1748.839Z" transform="translate(-1185.795 -1695.434)" fill="#13fc7f" fill-rule="evenodd"/>
      <path id="Path_39587" data-name="Path 39587" d="M1625.905,1648.027l-.226.784c-.524-.307-.351-.105-.726-.556C1625.666,1647.393,1625.407,1648.058,1625.905,1648.027Z" transform="translate(-1563.079 -1605.086)" fill="#13fc7f" fill-rule="evenodd"/>
      <path id="Path_39588" data-name="Path 39588" d="M1734.466,1411.213l-.227.785c-.523-.307-.349-.105-.725-.557C1734.226,1410.581,1733.968,1411.245,1734.466,1411.213Z" transform="translate(-1660.701 -1392.134)" fill="#13fc7f" fill-rule="evenodd"/>
      <path id="Path_39589" data-name="Path 39589" d="M1167.942,1735.708l-.322-.7.7-.321C1168.559,1735.355,1168.558,1735.359,1167.942,1735.708Z" transform="translate(-1151.827 -1683.211)" fill="#13fc7f" fill-rule="evenodd"/>
      <path id="Path_39590" data-name="Path 39590" d="M1536.765,1721.027l-.7.323c-.242-.665-.241-.669.375-1.018Z" transform="translate(-1483.015 -1670.298)" fill="#13fc7f" fill-rule="evenodd"/>
      <path id="Path_39591" data-name="Path 39591" d="M1510.853,1733.008l-.7.322c-.242-.664-.241-.669.374-1.019Z" transform="translate(-1459.714 -1681.071)" fill="#13fc7f" fill-rule="evenodd"/>
      <path id="Path_39592" data-name="Path 39592" d="M1081.652,1683.061l-.7.322c-.306-.838-.327-.217.026-.855C1081.58,1682.646,1081.3,1682.3,1081.652,1683.061Z" transform="translate(-1073.684 -1636.303)" fill="#13fc7f" fill-rule="evenodd"/>
      <path id="Path_39593" data-name="Path 39593" d="M1024,1621.722c-.589.214-.458.289-.549.192l.442-.425Z" transform="translate(-1022.18 -1581.415)" fill="#13fc7f" fill-rule="evenodd"/>
      <path id="Path_39594" data-name="Path 39594" d="M1484.847,1744.987c-.839.307-.218.327-.857-.025.145-.716-.241-.23.535-.672Z" transform="translate(-1436.319 -1691.843)" fill="#13fc7f" fill-rule="evenodd"/>
      <path id="Path_39595" data-name="Path 39595" d="M1459.051,1756.968l-.523.243-.322-.7.523-.242Z" transform="translate(-1413.133 -1702.618)" fill="#13fc7f" fill-rule="evenodd"/>
      <path id="Path_39596" data-name="Path 39596" d="M1727.366,1259.545l-.529-.137c.164-.766-.223-.278.554-.719C1727.689,1259.5,1727.732,1258.922,1727.366,1259.545Z" transform="translate(-1654.697 -1255.172)" fill="#13fc7f" fill-rule="evenodd"/>
      <path id="Path_39597" data-name="Path 39597" d="M1561.786,1710.08c-.164.766.223.279-.554.72-.307-.839-.328-.218.026-.858Z" transform="translate(-1505.567 -1660.956)" fill="#13fc7f" fill-rule="evenodd"/>
      <path id="Path_39598" data-name="Path 39598" d="M1665.787,1599.346l-.552.68c-.639-.483-.31-.354-.3-.7A1.347,1.347,0,0,1,1665.787,1599.346Z" transform="translate(-1598.947 -1561.431)" fill="#13fc7f" fill-rule="evenodd"/>
      <path id="Path_39599" data-name="Path 39599" d="M1344.92,1778.9c-.561.2-.329.155-.776.148-.058-.665-.285-.022.28-.764A1.218,1.218,0,0,1,1344.92,1778.9Z" transform="translate(-1310.479 -1722.414)" fill="#13fc7f" fill-rule="evenodd"/>
      <path id="Path_39600" data-name="Path 39600" d="M1244.185,1763.958l-.227.784c-.358-.265-.289-.176-.55-.635C1243.7,1764,1243.949,1763.855,1244.185,1763.958Z" transform="translate(-1219.978 -1709.497)" fill="#13fc7f" fill-rule="evenodd"/>
      <path id="Path_39601" data-name="Path 39601" d="M1719.343,1512.791l-.227.784c-.358-.266-.289-.175-.551-.636C1718.861,1512.832,1719.107,1512.689,1719.343,1512.791Z" transform="translate(-1647.258 -1483.639)" fill="#13fc7f" fill-rule="evenodd"/>
      <path id="Path_39602" data-name="Path 39602" d="M1131.866,1722.336l-.156.579-.579-.155.156-.578Z" transform="translate(-1119.014 -1671.963)" fill="#13fc7f" fill-rule="evenodd"/>
      <path id="Path_39603" data-name="Path 39603" d="M1736.3,1348.6l-.765.527c-.381-.543-.1-.03-.092-.553A1.35,1.35,0,0,1,1736.3,1348.6Z" transform="translate(-1662.337 -1335.953)" fill="#13fc7f" fill-rule="evenodd"/>
      <path id="Path_39604" data-name="Path 39604" d="M1434.348,1770.463c-.666-.135-.5.182-.495-.617C1434.486,1769.975,1434.37,1769.665,1434.348,1770.463Z" transform="translate(-1391.216 -1714.824)" fill="#13fc7f" fill-rule="evenodd"/>
      <path id="Path_39605" data-name="Path 39605" d="M1747.562,1437.965c-.608-.518-.478-.182-.149-.777C1748.019,1437.7,1747.89,1437.369,1747.562,1437.965Z" transform="translate(-1672.95 -1415.685)" fill="#13fc7f" fill-rule="evenodd"/>
      <path id="Path_39606" data-name="Path 39606" d="M1706.215,1550.814c-.516.607-.181.478-.777.148C1705.656,1550.708,1705.911,1550.374,1706.215,1550.814Z" transform="translate(-1635.453 -1517.669)" fill="#13fc7f" fill-rule="evenodd"/>
      <path id="Path_39607" data-name="Path 39607" d="M1692.927,1588.33c-.135.669.182.5-.615.5C1692.379,1588.49,1692.448,1588.118,1692.927,1588.33Z" transform="translate(-1623.65 -1551.542)" fill="#13fc7f" fill-rule="evenodd"/>
      <path id="Path_39608" data-name="Path 39608" d="M1734.387,1476.575c-.456-.388-.322-.1-.322-.7C1734.759,1476.019,1734.73,1475.957,1734.387,1476.575Z" transform="translate(-1661.18 -1450.477)" fill="#13fc7f" fill-rule="evenodd"/>
      <path id="Path_39609" data-name="Path 39609" d="M1033.19,1644.547c-.174.24-.15.184-.442.415l-.241-.522C1032.846,1644.372,1032.984,1644.246,1033.19,1644.547Z" transform="translate(-1030.328 -1601.978)" fill="#13fc7f" fill-rule="evenodd"/>
      <path id="Path_39610" data-name="Path 39610" d="M1749.781,1375.849c-.089.508.071.229-.361.589l-.241-.522C1749.364,1375.884,1749.647,1375.784,1749.781,1375.849Z" transform="translate(-1674.787 -1360.508)" fill="#13fc7f" fill-rule="evenodd"/>
      <path id="Path_39611" data-name="Path 39611" d="M1739.747,1286.125c-.089.511.072.231-.361.59l-.241-.523C1739.33,1286.16,1739.614,1286.061,1739.747,1286.125Z" transform="translate(-1665.764 -1279.825)" fill="#13fc7f" fill-rule="evenodd"/>
      <path id="Path_39612" data-name="Path 39612" d="M1653.18,1637.639c-.509-.088-.23.072-.59-.361l.522-.242C1653.175,1637.387,1653.23,1637.359,1653.18,1637.639Z" transform="translate(-1587.93 -1595.396)" fill="#13fc7f" fill-rule="evenodd"/>
      <path id="Path_39613" data-name="Path 39613" d="M1587.432,1699.507c-.508-.088-.229.072-.589-.36l.522-.241C1587.427,1699.255,1587.482,1699.227,1587.432,1699.507Z" transform="translate(-1528.808 -1651.032)" fill="#13fc7f" fill-rule="evenodd"/>
      <path id="Path_39614" data-name="Path 39614" d="M1281.309,1779c.324-.057.729-.213.573.21S1281.519,1779.253,1281.309,1779Z" transform="translate(-1254.06 -1722.989)" fill="#13fc7f" fill-rule="evenodd"/>
      <path id="Path_39615" data-name="Path 39615" d="M1613.29,1687.424c-.006-.007-.812.321.188-.51.067.392.269-.026.032.433C1613.321,1687.714,1613.559,1687.431,1613.29,1687.424Z" transform="translate(-1552.309 -1640.248)" fill="#13fc7f" fill-rule="evenodd"/>
      <path id="Path_39616" data-name="Path 39616" d="M1752.416,1312.049c.005,0,.812-.322-.187.51-.068-.392-.27.027-.032-.433C1752.388,1311.755,1752.153,1312.054,1752.416,1312.049Z" transform="translate(-1677.399 -1303.057)" fill="#13fc7f" fill-rule="evenodd"/>
      <path id="Path_39617" data-name="Path 39617" d="M1046.575,1669.26c.1.036.412-.208.113.211-.132.186-.433.219-.338-.125C1046.52,1668.734,1046.453,1669.215,1046.575,1669.26Z" transform="translate(-1042.76 -1624.174)" fill="#13fc7f" fill-rule="evenodd"/>
      <rect id="Rectangle_3455" data-name="Rectangle 3455" width="0.384" height="0.332" transform="translate(73.679 0.161) rotate(-24.803)" fill="#13fc7f"/>
      <path id="Path_39618" data-name="Path 39618" d="M1094.868,1709.7l-.348.161-.161-.348.349-.162Z" transform="translate(-1085.948 -1660.425)" fill="#13fc7f" fill-rule="evenodd"/>
      <path id="Path_39619" data-name="Path 39619" d="M1144.754,1749.547l-.346.161-.161-.35.346-.159Z" transform="translate(-1130.808 -1696.257)" fill="#13fc7f" fill-rule="evenodd"/>
      <path id="Path_39620" data-name="Path 39620" d="M1549.231,1749.124l-.348.161-.161-.349.348-.16Z" transform="translate(-1494.528 -1695.877)" fill="#13fc7f" fill-rule="evenodd"/>
      <path id="Path_39621" data-name="Path 39621" d="M1409.424,1782.328l-.347.16-.162-.349.348-.159Z" transform="translate(-1368.809 -1725.736)" fill="#13fc7f" fill-rule="evenodd"/>
      <path id="Path_39622" data-name="Path 39622" d="M1383.516,1794.3l-.349.162-.16-.349.348-.161Z" transform="translate(-1345.511 -1736.499)" fill="#13fc7f" fill-rule="evenodd"/>
      <path id="Path_39623" data-name="Path 39623" d="M1754.384,1249.574l-.349.161-.16-.348.348-.161Z" transform="translate(-1679.009 -1246.662)" fill="#13fc7f" fill-rule="evenodd"/>
      <path id="Path_39624" data-name="Path 39624" d="M1575.152,1737.141l-.349.161-.16-.348.348-.16Z" transform="translate(-1517.837 -1685.102)" fill="#13fc7f" fill-rule="evenodd"/>
      <path id="Path_39625" data-name="Path 39625" d="M1766.236,1275.174c-.088.238-.737.072-.261,0C1765.98,1275.172,1766.393,1274.747,1766.236,1275.174Z" transform="translate(-1689.735 -1269.825)" fill="#13fc7f" fill-rule="evenodd"/>
      <path id="Path_39626" data-name="Path 39626" d="M1719.527,1577.744c-.087.238-.735.072-.261,0C1719.271,1577.742,1719.685,1577.316,1719.527,1577.744Z" transform="translate(-1647.733 -1541.907)" fill="#13fc7f" fill-rule="evenodd"/>
      <path id="Path_39627" data-name="Path 39627" d="M1705.6,1615.632c-.087.24-.736.073-.262,0C1705.345,1615.631,1705.759,1615.205,1705.6,1615.632Z" transform="translate(-1635.21 -1575.978)" fill="#13fc7f" fill-rule="evenodd"/>
      <path id="Path_39628" data-name="Path 39628" d="M1232.382,1803c-.087.238-.737.072-.261,0C1232.126,1803,1232.54,1802.574,1232.382,1803Z" transform="translate(-1209.673 -1744.467)" fill="#13fc7f" fill-rule="evenodd"/>
      <path id="Path_39629" data-name="Path 39629" d="M1764.288,1338.974c-.089.239-.738.073-.263,0C1764.031,1338.974,1764.444,1338.547,1764.288,1338.974Z" transform="translate(-1687.982 -1327.197)" fill="#13fc7f" fill-rule="evenodd"/>
      <path id="Path_39630" data-name="Path 39630" d="M1776.268,1364.887c-.087.24-.737.073-.262,0C1776.012,1364.887,1776.424,1364.462,1776.268,1364.887Z" transform="translate(-1698.756 -1350.499)" fill="#13fc7f" fill-rule="evenodd"/>
      <path id="Path_39631" data-name="Path 39631" d="M1733.457,1539.847c-.089.238-.737.073-.263,0C1733.2,1539.846,1733.613,1539.419,1733.457,1539.847Z" transform="translate(-1660.258 -1507.829)" fill="#13fc7f" fill-rule="evenodd"/>
      <path id="Path_39632" data-name="Path 39632" d="M1156.6,1775.139c-.088.239-.738.074-.261,0C1156.341,1775.138,1156.755,1774.712,1156.6,1775.139Z" transform="translate(-1141.525 -1719.412)" fill="#13fc7f" fill-rule="evenodd"/>
      <path id="Path_39633" data-name="Path 39633" d="M1194.491,1789.066c-.088.239-.737.073-.261,0C1194.235,1789.066,1194.648,1788.639,1194.491,1789.066Z" transform="translate(-1175.6 -1731.936)" fill="#13fc7f" fill-rule="evenodd"/>
      <path id="Path_39634" data-name="Path 39634" d="M1680.1,1626.2l.136-.528C1680.386,1626.262,1680.692,1625.846,1680.1,1626.2Z" transform="translate(-1612.668 -1585.178)" fill="#13fc7f" fill-rule="evenodd"/>
      <path id="Path_39635" data-name="Path 39635" d="M1320.79,1792.349l.136-.527C1321.078,1792.41,1321.381,1791.994,1320.79,1792.349Z" transform="translate(-1289.563 -1734.586)" fill="#13fc7f" fill-rule="evenodd"/>
      <path id="Path_39636" data-name="Path 39636" d="M1358.689,1806.278l.136-.528C1358.976,1806.34,1359.28,1805.923,1358.689,1806.278Z" transform="translate(-1323.643 -1747.11)" fill="#13fc7f" fill-rule="evenodd"/>
      <path id="Path_39637" data-name="Path 39637" d="M1762.762,1401.361l.136-.528C1763.05,1401.421,1763.352,1401.006,1762.762,1401.361Z" transform="translate(-1687.001 -1382.993)" fill="#13fc7f" fill-rule="evenodd"/>
      <path id="Path_39638" data-name="Path 39638" d="M1641.63,1675.577c.185.4-.244.216-.115.054C1641.516,1675.628,1641.4,1675.074,1641.63,1675.577Z" transform="translate(-1577.945 -1629.864)" fill="#13fc7f" fill-rule="evenodd"/>
      <path id="Path_39639" data-name="Path 39639" d="M1667.539,1663.6c.185.4-.243.216-.115.053C1667.426,1663.648,1667.307,1663.094,1667.539,1663.6Z" transform="translate(-1601.244 -1619.091)" fill="#13fc7f" fill-rule="evenodd"/>
      <path id="Path_39640" data-name="Path 39640" d="M1748.249,1502.563c.184.4-.245.216-.116.054C1748.136,1502.613,1748.015,1502.058,1748.249,1502.563Z" transform="translate(-1673.82 -1474.282)" fill="#13fc7f" fill-rule="evenodd"/>
      <path id="Path_39641" data-name="Path 39641" d="M1109.308,1735.107c.185.4-.244.217-.115.053C1109.2,1735.158,1109.076,1734.605,1109.308,1735.107Z" transform="translate(-1099.261 -1683.396)" fill="#13fc7f" fill-rule="evenodd"/>
      <path id="Path_39642" data-name="Path 39642" d="M1071.415,1721.181c.185.4-.245.216-.115.053C1071.3,1721.232,1071.183,1720.677,1071.415,1721.181Z" transform="translate(-1065.186 -1670.872)" fill="#13fc7f" fill-rule="evenodd"/>
      <path id="Path_39643" data-name="Path 39643" d="M1776.1,1426.778c.186.4-.243.217-.114.054C1775.991,1426.83,1775.872,1426.275,1776.1,1426.778Z" transform="translate(-1698.87 -1406.134)" fill="#13fc7f" fill-rule="evenodd"/>
      <path id="Path_39644" data-name="Path 39644" d="M1762.176,1464.667c.185.4-.244.216-.114.054C1762.064,1464.719,1761.943,1464.164,1762.176,1464.667Z" transform="translate(-1686.345 -1440.206)" fill="#13fc7f" fill-rule="evenodd"/>
      <path id="Path_39645" data-name="Path 39645" d="M1601.789,1725.454c.186.4-.245.217-.115.054C1601.675,1725.505,1601.556,1724.952,1601.789,1725.454Z" transform="translate(-1542.119 -1674.715)" fill="#13fc7f" fill-rule="evenodd"/>
      <path id="Path_39646" data-name="Path 39646" d="M1499.871,1772.581c.185.4-.244.217-.114.053C1499.757,1772.633,1499.638,1772.078,1499.871,1772.581Z" transform="translate(-1450.47 -1717.094)" fill="#13fc7f" fill-rule="evenodd"/>
      <path id="Path_39647" data-name="Path 39647" d="M1473.962,1784.558c.186.4-.244.218-.115.054C1473.848,1784.61,1473.729,1784.056,1473.962,1784.558Z" transform="translate(-1427.171 -1727.864)" fill="#13fc7f" fill-rule="evenodd"/>
      <path id="Path_39648" data-name="Path 39648" d="M1448.045,1796.544c.186.4-.245.217-.116.054C1447.932,1796.6,1447.813,1796.041,1448.045,1796.544Z" transform="translate(-1403.866 -1738.642)" fill="#13fc7f" fill-rule="evenodd"/>
      <path id="Path_39649" data-name="Path 39649" d="M1296.254,1803.829c.185.4-.244.216-.116.054C1296.14,1803.881,1296.022,1803.326,1296.254,1803.829Z" transform="translate(-1267.37 -1745.193)" fill="#13fc7f" fill-rule="evenodd"/>
      <path id="Path_39650" data-name="Path 39650" d="M1525.776,1760.6c.186.4-.243.217-.116.054C1525.662,1760.651,1525.544,1760.1,1525.776,1760.6Z" transform="translate(-1473.765 -1706.32)" fill="#13fc7f" fill-rule="evenodd"/>
      <path id="Path_39651" data-name="Path 39651" d="M1221.111,1777.581c-.141-.527-.205-.183.135-.527Z" transform="translate(-1199.826 -1721.306)" fill="#13fc7f" fill-rule="evenodd"/>
      <path id="Path_39652" data-name="Path 39652" d="M1183.222,1763.654c-.141-.526-.205-.184.135-.528Z" transform="translate(-1165.755 -1708.781)" fill="#13fc7f" fill-rule="evenodd"/>
      <path id="Path_39653" data-name="Path 39653" d="M1257.644,1790.992c-.526.141-.182.206-.528-.135Z" transform="translate(-1232.305 -1733.718)" fill="#13fc7f" fill-rule="evenodd"/>
      <path id="Path_39654" data-name="Path 39654" d="M1010.959,1658.744c-.01.026-.087-.052-.075-.027h0S1010.967,1658.719,1010.959,1658.744Z" transform="translate(-1010.882 -1614.888)" fill="#13fc7f" fill-rule="evenodd"/>
      <path id="Path_39655" data-name="Path 39655" d="M1060.849,1698.637l-.075-.027S1060.859,1698.612,1060.849,1698.637Z" transform="translate(-1055.747 -1650.766)" fill="#13fc7f" fill-rule="evenodd"/>
    </g>
    <path id="Path_39656" data-name="Path 39656" d="M464.785,393.638A57.806,57.806,0,0,1,487.12,398.1a22.335,22.335,0,0,1,10.672-2.684c11.953,0,21.644,9.254,21.644,20.67a19.84,19.84,0,0,1-2.482,9.617,60.826,60.826,0,0,1,6.811,28.074c0,33.216-26.406,60.144-58.979,60.144a57.993,57.993,0,0,1-14.976-1.958c-10.073,7.487-18.251,10.589-28.636,11.475,4.9-10.16,6.887-12.614,7.6-22.032a60.2,60.2,0,0,1-18.3-24.139q-1.171.38-2.939,1.152l1.515,2.6a14.838,14.838,0,0,1,2.6,6.06q-2.656,5.278-8.874,4.329.624-.565-8.441-5.411c-7.387-1.508-13.852-11.038-10.173-14.068a57.345,57.345,0,0,0,21.644-18.149C405.806,420.565,432.212,393.638,464.785,393.638Z" transform="translate(0 0)" fill="#7d2fb7" fill-rule="evenodd"/>
    <path id="Path_39657" data-name="Path 39657" d="M736.342,469.425A51.756,51.756,0,1,1,723.2,571.252q-11.693,12.059-25.237,17.031,7.932-13.14,6.776-26.115a51.755,51.755,0,0,1,31.6-92.743Z" transform="translate(-271.109 -68.151)" fill="#5205ba" fill-rule="evenodd"/>
    <g transform="matrix(1, 0, 0, 1, 349.78, 393.64)" filter="url(#Union_1)">
      <path id="Union_1-2" data-name="Union 1" d="M-1580.678-477.987a5.99,5.99,0,0,1-2.444-2.523,8.931,8.931,0,0,1-.938-4.311,8,8,0,0,1,1.856-5.633,6.676,6.676,0,0,1,5.172-2.017,6.8,6.8,0,0,1,5.235,1.979,7.853,7.853,0,0,1,1.837,5.55,9.744,9.744,0,0,1-.8,4.246,6.044,6.044,0,0,1-2.321,2.581,7.172,7.172,0,0,1-3.785.922A8.132,8.132,0,0,1-1580.678-477.987Zm1.59-10.058a5.264,5.264,0,0,0-.773,3.235,5.266,5.266,0,0,0,.767,3.214,2.52,2.52,0,0,0,2.09.977,2.505,2.505,0,0,0,2.1-.957,5.809,5.809,0,0,0,.744-3.437,4.836,4.836,0,0,0-.776-3.046,2.559,2.559,0,0,0-2.106-.964A2.481,2.481,0,0,0-1579.088-488.046Zm21.578,10.514-2.388-9.193-2.372,9.193h-4.118l-3.021-14.6h3.991l1.435,8.147,2.1-8.147h3.959l2.119,8.16,1.443-8.16h3.972l-3,14.6Zm-32.782,0-5.074-8.017v8.017h-3.953v-14.6h3.924l5.1,8.061v-8.061h3.971v14.6Zm-15.624,0-2.869-5.995-2.182,2.44v3.555h-4.2v-14.6h4.2v5.516l4.4-5.516h5.59l-4.965,5.486,5.194,9.114Zm23.809-19.972a6.022,6.022,0,0,1-2.088-.586,5.189,5.189,0,0,1-1.532-1.246,4.593,4.593,0,0,1-.953-1.667,8.626,8.626,0,0,1-.414-2.444v-8.617h4.465v8.822a2.522,2.522,0,0,0,.652,1.845,2.439,2.439,0,0,0,1.819.667,2.438,2.438,0,0,0,1.8-.657,2.51,2.51,0,0,0,.653-1.855v-8.822h4.465v8.617a7.27,7.27,0,0,1-.4,2.417,5.235,5.235,0,0,1-1.253,1.993,5.041,5.041,0,0,1-1.788,1.2,9.084,9.084,0,0,1-3.128.481A19.968,19.968,0,0,1-1582.108-497.5Zm-18.805-.63a6.111,6.111,0,0,1-2.6-2.468,8.178,8.178,0,0,1-1-4.219,7.443,7.443,0,0,1,1.973-5.513,7.435,7.435,0,0,1,5.5-1.973,7.576,7.576,0,0,1,5.566,1.936,7.311,7.311,0,0,1,1.953,5.431,8.891,8.891,0,0,1-.851,4.155,6.111,6.111,0,0,1-2.469,2.525,8.144,8.144,0,0,1-4.024.9A9.277,9.277,0,0,1-1600.914-498.134Zm1.689-9.842a4.848,4.848,0,0,0-.821,3.165,4.849,4.849,0,0,0,.815,3.146,2.776,2.776,0,0,0,2.222.956,2.765,2.765,0,0,0,2.233-.936,5.334,5.334,0,0,0,.791-3.363,4.453,4.453,0,0,0-.825-2.98,2.821,2.821,0,0,0-2.239-.943A2.729,2.729,0,0,0-1599.224-507.976Zm-15.04,10.378v-6.057l-5.637-8.408h4.963l2.926,4.868,2.912-4.868h4.936l-5.616,8.408v6.057Zm18.994-19.835v-15.113h6.941a8.332,8.332,0,0,1,3.314.556,5.449,5.449,0,0,1,2.09,1.6,6.616,6.616,0,0,1,1.193,2.424,11.126,11.126,0,0,1,.373,2.927,10.137,10.137,0,0,1-.552,3.758,6.2,6.2,0,0,1-1.53,2.237,5.031,5.031,0,0,1-2.1,1.2,10.881,10.881,0,0,1-2.783.411Zm4.665-3.441h1.147a4.879,4.879,0,0,0,2.09-.324,2.224,2.224,0,0,0,.97-1.132,7.08,7.08,0,0,0,.352-2.624,5.079,5.079,0,0,0-.784-3.286,3.334,3.334,0,0,0-2.607-.887h-1.168Zm-12.752,3.441v-15.113h4.686v15.113Zm-16.545,0v-15.113h6.941a8.332,8.332,0,0,1,3.314.556,5.449,5.449,0,0,1,2.09,1.6,6.631,6.631,0,0,1,1.193,2.424,11.126,11.126,0,0,1,.373,2.927,10.134,10.134,0,0,1-.552,3.758,6.189,6.189,0,0,1-1.53,2.237,5.031,5.031,0,0,1-2.1,1.2,10.882,10.882,0,0,1-2.783.411Zm4.665-3.441h1.147A4.874,4.874,0,0,0-1612-521.2a2.22,2.22,0,0,0,.971-1.132,7.077,7.077,0,0,0,.352-2.624,5.073,5.073,0,0,0-.785-3.286,3.331,3.331,0,0,0-2.606-.887h-1.168Z" transform="translate(1707.93 565.86)" fill="#fff" stroke="rgba(0,0,0,0)" stroke-miterlimit="10" stroke-width="1"/>
    </g>
    <path id="Path_39667" data-name="Path 39667" d="M1282.714,480.426a14.683,14.683,0,0,1,2.471-7.785,19.053,19.053,0,0,1,7.191-6.529,22.661,22.661,0,0,1,11.042-2.581,23.488,23.488,0,0,1,10.352,2.167,16.691,16.691,0,0,1,6.915,5.88,14.41,14.41,0,0,1,2.443,8.074,12.6,12.6,0,0,1-1.394,6.032,17.949,17.949,0,0,1-3.312,4.458q-1.905,1.884-6.874,6.335a25.532,25.532,0,0,0-2.208,2.195,8.7,8.7,0,0,0-1.228,1.739,8.342,8.342,0,0,0-.635,1.573c-.138.525-.373,1.449-.662,2.774q-.766,4.2-4.817,4.2a4.929,4.929,0,0,1-3.533-1.367,5.377,5.377,0,0,1-1.435-4.085,14.3,14.3,0,0,1,3.837-10.242c1.159-1.256,2.733-2.747,4.693-4.472,1.725-1.5,2.981-2.65,3.74-3.409a11.65,11.65,0,0,0,1.946-2.567,6.227,6.227,0,0,0,.787-3.078,7.134,7.134,0,0,0-2.4-5.452,8.827,8.827,0,0,0-6.211-2.222q-4.451,0-6.556,2.25a17.881,17.881,0,0,0-3.547,6.611q-1.388,4.555-5.218,4.555a5.076,5.076,0,0,1-3.823-1.6,4.879,4.879,0,0,1-1.56-3.45Zm19.724,44.306a6.383,6.383,0,0,1-4.306-1.6,5.591,5.591,0,0,1-1.836-4.472,5.74,5.74,0,0,1,1.781-4.279,6,6,0,0,1,4.362-1.739,5.94,5.94,0,0,1,6.032,6.018,5.655,5.655,0,0,1-1.822,4.458A6.14,6.14,0,0,1,1302.438,524.732Z" transform="translate(-808.969 -62.851)" fill="#fff" fill-rule="evenodd"/>
    <g transform="matrix(1, 0, 0, 1, 349.78, 393.64)" filter="url(#Ellipse_2478)">
      <circle id="Ellipse_2478-2" data-name="Ellipse 2478" cx="29.614" cy="29.614" r="29.614" transform="translate(50.88 120.58) rotate(-135)" fill="#f72486"/>
    </g>
    <g id="Group_20971" data-name="Group 20971" transform="translate(381.598 452.581) rotate(11)">
      <path id="Path_39375" data-name="Path 39375" d="M8.4,4.008a1.057,1.057,0,0,0,1.015-.763,1.021,1.021,0,0,0-.732-1.263L1.326.032A1.059,1.059,0,0,0,.034.76,1.021,1.021,0,0,0,.766,2.023L8.127,3.972A1.057,1.057,0,0,0,8.4,4.008Z" transform="translate(1.165 9.927)" fill="#fff"/>
      <path id="Path_39376" data-name="Path 39376" d="M6.388,6.73a1.064,1.064,0,0,0,.786-.348,1.017,1.017,0,0,0-.08-1.455L1.747.255A1.064,1.064,0,0,0,.264.344,1.017,1.017,0,0,0,.345,1.8L5.691,6.472A1.048,1.048,0,0,0,6.388,6.73Z" transform="translate(5.778 -0.021)" fill="#fff"/>
      <path id="Path_39377" data-name="Path 39377" d="M1.036,3.421a1.056,1.056,0,0,0,.2-.02L8.294,2.012A1.04,1.04,0,0,0,9.126.8,1.04,1.04,0,0,0,7.9-.009L.842,1.38a1.028,1.028,0,0,0,.194,2.041Z" transform="translate(-0.072 19.406)" fill="#fff"/>
      <path id="Path_39378" data-name="Path 39378" d="M2.575,12.651a2.657,2.657,0,0,0,2.2-1.177L9.8,3.95A2.54,2.54,0,0,0,9.047.387a2.663,2.663,0,0,0-3.635.763L.395,8.673a2.54,2.54,0,0,0,.75,3.563A2.634,2.634,0,0,0,2.575,12.651Z" transform="translate(29.958 19.252)" fill="#5e35b1"/>
      <g id="Group_20969" data-name="Group 20969" transform="translate(19.089 5.659)">
        <path id="Path_39379" data-name="Path 39379" d="M5.408-.02,7.115,2.21A18.8,18.8,0,0,0,17.23,8.72l3.927,1.04a4.628,4.628,0,0,1,3.315,5.726h0a4.805,4.805,0,0,1-5.856,3.3l-3.927-1.04a19.3,19.3,0,0,0-12.123.621L-.072,19.443l3.909-9.422Z" transform="translate(0.862 1.167)" fill="#fff"/>
        <path id="Path_39380" data-name="Path 39380" d="M-.08,21.469l3.688-1.507a18.738,18.738,0,0,1,11.816-.6l3.927,1.04a5.3,5.3,0,0,0,3.975-.509,5.172,5.172,0,0,0,2.465-3.118,5.1,5.1,0,0,0-3.646-6.3l-3.927-1.04A18.254,18.254,0,0,1,8.358,3.095L5.972-.022,4.237,11.066Zm10.319-3.715A18.669,18.669,0,0,0,3.248,19.1l-1.59.65,3.511-8.5,1.4-8.94L7.6,3.659a19.2,19.2,0,0,0,10.369,6.679l3.927,1.04a4.17,4.17,0,0,1,2.984,5.154,4.235,4.235,0,0,1-2.018,2.551,4.337,4.337,0,0,1-3.253.416l-3.927-1.04A20.978,20.978,0,0,0,10.239,17.754Z" transform="translate(0 0)" fill="#5e35b1"/>
      </g>
      <path id="Path_39381" data-name="Path 39381" d="M-.033,8.96c.4.08,1.368.279,1.766.385l3.925,1.039a4.846,4.846,0,0,0,3.616-.461,4.72,4.72,0,0,0,2.241-2.836A4.628,4.628,0,0,0,8.2,1.36L4.274.321c-.378-.1-.753-.21-1.12-.332.713,1.448.712,2.574-.144,4.96A7.569,7.569,0,0,1-.033,8.96Z" transform="translate(32.909 15.225)" fill="#5e35b1"/>
      <g id="Group_20970" data-name="Group 20970" transform="translate(12.331 2.608)">
        <path id="Path_39668" data-name="Path 39668" d="M5.057-.039c2.793-.022,5.013,5.593,4.959,12.54S7.653,25.1,4.86,25.12-.153,19.527-.1,12.58,2.264-.018,5.057-.039Z" transform="matrix(-0.965, -0.263, 0.263, -0.965, 9.688, 26.783)" fill="#fff"/>
        <path id="Path_39382" data-name="Path 39382" d="M3.51,25.258c1.344,0,2.839-1.006,4.285-2.889a25.316,25.316,0,0,0,3.922-8.341,24.916,24.916,0,0,0,.994-9.116c-.3-2.735-1.3-4.46-2.8-4.859s-3.269.6-4.962,2.8A25.319,25.319,0,0,0,1.022,11.2a24.918,24.918,0,0,0-.994,9.117c.3,2.735,1.3,4.46,2.8,4.859A2.593,2.593,0,0,0,3.51,25.258ZM9.228.9a1.63,1.63,0,0,1,.424.053c1.089.289,1.86,1.77,2.113,4.065a24.012,24.012,0,0,1-.965,8.766,24.377,24.377,0,0,1-3.764,8.025c-1.421,1.851-2.859,2.749-3.95,2.46S1.227,22.5.973,20.206a24.018,24.018,0,0,1,.965-8.766A24.372,24.372,0,0,1,5.7,3.414C6.946,1.794,8.2.9,9.228.9Z" transform="translate(1.84 0.767)" fill="#5e35b1"/>
      </g>
      <path id="Path_39383" data-name="Path 39383" d="M.775,17.953c.878.232,2.219-1.632,3.428-4.538A5.275,5.275,0,0,1,3.11,9.593,4.8,4.8,0,0,1,6.294,6.232C6.906,2.818,6.773.248,5.833,0,4.608-.327,2.483,3.434,1.09,8.39S-.445,17.632.775,17.953Z" transform="translate(16.988 6.945)" fill="#5e35b1"/>
    </g>
  </g>
</svg>
