<svg xmlns="http://www.w3.org/2000/svg" width="29.329" height="30.149" viewBox="0 0 29.329 30.149">
  <g id="Group_21009" data-name="Group 21009" transform="translate(-35 -939.93)">
    <path id="Path_39669" data-name="Path 39669" d="M1200.816,1947.649c-.078,0-.154,0-.231.006a12.121,12.121,0,0,1,5.792-6.834c-5.8-1.2-12.177,1.653-15.554,7.448-3.79,6.5-2.487,14.467,2.765,18.718a11.02,11.02,0,1,0,7.227-19.337Z" transform="translate(-1153.646 -1000.121)" fill="#f72486"/>
    <path id="Path_39670" data-name="Path 39670" d="M1424.121,1969.687a11.021,11.021,0,0,0-.285-22.038c-.077,0-.154,0-.231.006a12.12,12.12,0,0,1,5.792-6.834,13.256,13.256,0,0,0-3.778-.222" transform="translate(-1371.027 -1000.121)" fill="none" stroke="#f72486" stroke-linecap="round" stroke-linejoin="round" stroke-width="1"/>
  </g>
</svg>
